<?xml version="1.0" encoding="utf-8"?>
<!-- Generator: Adobe Illustrator 21.0.0, SVG Export Plug-In . SVG Version: 6.00 Build 0)  -->
<svg version="1.1" id="图层_1" xmlns="http://www.w3.org/2000/svg" xmlns:xlink="http://www.w3.org/1999/xlink" x="0px" y="0px"
	 viewBox="0 0 34.3 22.5" style="enable-background:new 0 0 34.3 22.5;" xml:space="preserve">
<path d="M32.7,0.2h-31c-0.6,0-1,0.5-1,1v4.5c0,0.5,0.4,1,1,1h31c0.5,0,1-0.5,1-1V1.2C33.7,0.7,33.3,0.2,32.7,0.2z M4.3,5.1
	c-0.9,0-1.6-0.7-1.6-1.6s0.7-1.6,1.6-1.6s1.6,0.7,1.6,1.6S5.2,5.1,4.3,5.1z"/>
<path d="M32.7,8h-31c-0.6,0-1,0.5-1,1v4.5c0,0.5,0.4,1,1,1h31c0.5,0,1-0.5,1-1V9C33.7,8.4,33.3,8,32.7,8z M4.3,12.8
	c-0.9,0-1.6-0.7-1.6-1.6s0.7-1.6,1.6-1.6s1.6,0.7,1.6,1.6S5.2,12.8,4.3,12.8z"/>
<path d="M32.7,15.7h-31c-0.6,0-1,0.5-1,1v4.5c0,0.5,0.4,1,1,1h31c0.5,0,1-0.5,1-1v-4.5C33.7,16.3,33.3,15.7,32.7,15.7z M4.3,20.6
	c-0.9,0-1.6-0.7-1.6-1.6s0.7-1.6,1.6-1.6s1.6,0.7,1.6,1.6S5.2,20.6,4.3,20.6z"/>
</svg>
