<?xml version="1.0" standalone="no"?><!DOCTYPE svg PUBLIC "-//W3C//DTD SVG 1.1//EN" "http://www.w3.org/Graphics/SVG/1.1/DTD/svg11.dtd"><svg t="1572424207615" class="icon" viewBox="0 0 1024 1024" version="1.1" xmlns="http://www.w3.org/2000/svg" p-id="18619" xmlns:xlink="http://www.w3.org/1999/xlink" width="200" height="200"><defs><style type="text/css"></style></defs><path d="M716.8 921.6v-307.2a51.2 51.2 0 0 1 51.2-51.2h102.4a51.2 51.2 0 0 1 51.2 51.2v307.2h51.2a51.2 51.2 0 0 1 0 102.4H51.2a51.2 51.2 0 0 1 0-102.4h51.2V307.2a51.2 51.2 0 0 1 51.2-51.2h102.4a51.2 51.2 0 0 1 51.2 51.2v614.4h102.4V51.2a51.2 51.2 0 0 1 51.2-51.2h102.4a51.2 51.2 0 0 1 51.2 51.2v870.4h102.4z" p-id="18620" fill="#ffffff"></path></svg>