<?xml version="1.0" encoding="utf-8"?>
<!-- Generator: Adobe Illustrator 21.0.0, SVG Export Plug-In . SVG Version: 6.00 Build 0)  -->
<svg version="1.1" id="图层_1" xmlns="http://www.w3.org/2000/svg" xmlns:xlink="http://www.w3.org/1999/xlink" x="0px" y="0px"
	 viewBox="0 0 200 200" style="enable-background:new 0 0 200 200;" xml:space="preserve">
<style type="text/css">
	.st0{fill:#4F4F4F;}
</style>
<path class="st0" d="M158.2,27.9h-20.8v-9.7c0-7.3-5.9-13.2-13.2-13.2H75.8c-7.3,0-13.2,5.9-13.2,13.2v9.7H41.8
	c-8.7,0-15.6,6.9-15.6,15.6v137.9c0,8.7,6.9,15.6,15.6,15.6h116.4c8.7,0,15.6-6.9,15.6-15.6V43.4C173.8,34.8,166.9,27.9,158.2,27.9z
	 M73,18.2c0-1.4,1.4-2.8,2.8-2.8h48.8c1.4,0,2.8,1.4,2.8,2.8v7.6c0,1-1,2.1-2.1,2.1H75.1c-1,0-2.1-1-2.1-2.1
	C73,25.8,73,18.2,73,18.2z M163.4,181.3c0,2.8-2.4,5.2-5.2,5.2H41.8c-2.8,0-5.2-2.4-5.2-5.2V43.4c0-2.8,2.4-5.2,5.2-5.2h116.4
	c2.8,0,5.2,2.4,5.2,5.2L163.4,181.3L163.4,181.3z"/>
<path class="st0" d="M80.3,57.3h39.5c2.4,0,4.5-2.1,4.5-4.5c0-2.4-2.1-4.5-4.5-4.5H80.3c-2.4,0-4.5,2.1-4.5,4.5
	C75.8,55.2,77.8,57.3,80.3,57.3z M121.8,113.1c4.2-5.9,6.2-13.2,4.8-21.1c-2.1-10.7-10.7-19.1-21.1-21.1
	c-17.3-3.5-32.2,9.7-32.2,26.7c0,5.9,2.1,11.4,5.2,15.9c-14.9,8-24.2,23.6-24.2,40.5v4.8c0,2.4,2.1,4.5,4.5,4.5h83.1
	c2.4,0,4.5-2.1,4.5-4.5v-5.2C146.1,136.6,136.7,121,121.8,113.1L121.8,113.1z M104.2,79.5c6.6,1.4,12.1,6.9,13.5,13.5
	c2.8,13.2-8.7,24.6-21.8,21.8c-6.6-1.4-12.1-6.9-13.5-13.5C79.6,88.1,91,76.7,104.2,79.5L104.2,79.5z M137.1,154.3H62.9v-0.7
	c0-14.5,8.7-28.1,22.2-33.9c4.2,2.8,9.4,4.5,14.9,4.5c5.5,0,10.7-1.7,14.9-4.5c13.5,5.9,22.2,19.4,22.2,33.9V154.3z"/>
</svg>
