<?xml version="1.0" encoding="utf-8"?>
<!-- Generator: Adobe Illustrator 21.0.0, SVG Export Plug-In . SVG Version: 6.00 Build 0)  -->
<svg version="1.1" id="图层_1" xmlns="http://www.w3.org/2000/svg" xmlns:xlink="http://www.w3.org/1999/xlink" x="0px" y="0px"
	 viewBox="0 0 1280 1024" style="enable-background:new 0 0 1280 1024;" xml:space="preserve">
<style type="text/css">
	.st0{fill:#FFFFFF;}
	.st1{clip-path:url(#SVGID_2_);fill:#FFFFFF;}
</style>
<g>
	<path class="st0" d="M816.3,512.1H461.8c-7.3,0-14.3-2.9-19.5-8.1c-5.2-5.2-8.1-12.2-8.1-19.5V130.1c0-7.3,2.9-14.3,8.1-19.5
		c5.2-5.2,12.2-8.1,19.5-8.1h354.4c7.3,0,14.3,2.9,19.5,8.1c5.2,5.2,8.1,12.2,8.1,19.5v354.5c0,7.3-2.9,14.3-8.1,19.5
		C830.6,509.2,823.6,512.1,816.3,512.1L816.3,512.1z M465.8,480.6h346.6V134H465.8V480.6z M465.8,480.6"/>
	<path class="st0" d="M914.9,700.9H363.2c-14.6,0-26.5-11.2-26.5-25V496.4c0-8.7,7.1-15.8,15.8-15.8c8.7,0,15.8,7.1,15.8,15.8v173
		h541.7v-173c0-8.7,7.1-15.8,15.8-15.8c8.7,0,15.8,7.1,15.8,15.8v179.5C941.4,689.7,929.5,700.9,914.9,700.9L914.9,700.9z
		 M914.9,700.9"/>
	<path class="st0" d="M639,685.6c-4.2,0-8.2-1.7-11.1-4.6c-3-3-4.6-7-4.6-11.1V496.4c0-8.7,7.1-15.8,15.8-15.8
		c8.7,0,15.8,7.1,15.8,15.8v173.5c0,4.2-1.7,8.2-4.6,11.1C647.2,684,643.2,685.6,639,685.6L639,685.6z M639,685.6"/>
	<g>
		<defs>
			<rect id="SVGID_1_" x="301" y="102" width="676.8" height="820.7"/>
		</defs>
		<clipPath id="SVGID_2_">
			<use xlink:href="#SVGID_1_"  style="overflow:visible;"/>
		</clipPath>
		<path class="st1" d="M639,921.7c-4.2,0-8.2-1.7-11.1-4.6c-3-3-4.6-7-4.6-11.1V669.9c0-8.7,7.1-15.8,15.8-15.8
			c8.7,0,15.8,7.1,15.8,15.8V906c0,4.2-1.7,8.2-4.6,11.1C647.2,920,643.2,921.7,639,921.7L639,921.7z M639,921.7"/>
		<path class="st1" d="M796.7,921.7H481.4c-8.7,0-15.8-7.1-15.8-15.8c0-8.7,7.1-15.8,15.8-15.8h315.2c8.7,0,15.8,7.1,15.8,15.8
			C812.4,914.7,805.4,921.7,796.7,921.7L796.7,921.7z M925.6,638H352.4c-8.7,0-15.8-7.1-15.8-15.8c0-8.7,7.1-15.8,15.8-15.8h573.2
			c8.7,0,15.8,7.1,15.8,15.8C941.4,630.9,934.3,638,925.6,638L925.6,638z M388.3,512.1h-71.6c-8.7,0-15.8-7.1-15.8-15.8
			c0-8.7,7.1-15.8,15.8-15.8h71.6c8.7,0,15.8,7.1,15.8,15.8C404,505.1,397,512.1,388.3,512.1L388.3,512.1z M961.5,512.1h-71.6
			c-8.7,0-15.8-7.1-15.8-15.8c0-8.7,7.1-15.8,15.8-15.8h71.6c8.7,0,15.8,7.1,15.8,15.8C977.2,505.1,970.2,512.1,961.5,512.1
			L961.5,512.1z M961.5,512.1"/>
	</g>
</g>
</svg>
