<?xml version="1.0" encoding="utf-8"?>
<!-- Generator: Adobe Illustrator 21.0.0, SVG Export Plug-In . SVG Version: 6.00 Build 0)  -->
<svg version="1.1" id="图层_1" xmlns="http://www.w3.org/2000/svg" xmlns:xlink="http://www.w3.org/1999/xlink" x="0px" y="0px"
	 viewBox="0 0 46.1 44.2" style="enable-background:new 0 0 46.1 44.2;" xml:space="preserve">
<g>
	<path d="M35.4,36.9H10.6c-2,0-3.6,1.6-3.6,3.6S8.6,44,10.6,44h24.9c0,0,0,0,0,0c2,0,3.6-1.6,3.6-3.6S37.4,36.9,35.4,36.9z"/>
	<path d="M40.2,0.4H5.9c-3.1,0-5.7,2.4-5.7,5.1v24.2c0,2.7,2.7,5.1,5.7,5.1h34.3c3.1,0,5.7-2.4,5.7-5.1V5.5
		C45.9,2.8,43.3,0.4,40.2,0.4z M19.9,29.4l-0.2,0.4c0,0-0.1,0.1-0.1,0.2c-0.5,0.7-1.5,0.8-2.1,0.3l-0.1,0c-0.3-0.2-0.5-0.6-0.6-0.9
		v0c0,0-0.1-0.1-0.1,0c-0.5,0.3-1.1,0.2-1.6-0.1L15,29c-0.4-0.3-0.6-0.8-0.6-1.3v0c0,0-0.1-0.1-0.1,0c-0.5,0.2-1.1,0.2-1.6-0.2
		l-0.1-0.1c-0.4-0.3-0.6-0.9-0.5-1.4v-0.1c0,0-0.1-0.1-0.1,0c-0.5,0.3-1.2,0.2-1.7-0.1l-0.2-0.1h0c-0.6-0.5-0.7-1.4-0.2-2.1l1.2-1.4
		c0.5-0.6,1.3-0.8,2-0.4c0.7,0.4,0.9,1.3,0.5,1.9c0,0,0,0.2,0.1,0.1c0.4-0.2,0.9-0.2,1.3-0.1c0.8,0.3,1.1,1.2,0.8,1.9
		c0,0-0.1,0.2,0.2,0.2c0.2-0.1,0.4-0.1,0.6-0.1c0.8,0.1,1.5,0.8,1.4,1.6v0c0,0,0,0,0.1,0c0.6-0.2,1.2-0.1,1.7,0.3
		C20.2,28,20.3,28.8,19.9,29.4z M32.6,26.3c-0.7,0.4-1.6,0.3-2.2-0.3l-0.1-0.1h0v0c0.1,0.7-0.2,1.4-0.7,1.8
		c-0.7,0.5-1.7,0.4-2.3-0.2l-0.1-0.1h0v0c0.1,0.7-0.1,1.4-0.7,1.8c-0.7,0.5-1.7,0.4-2.3-0.2l-0.1-0.1h0v0c0.1,0.5,0,0.9-0.3,1.3
		c-0.6,0.8-1.7,1-2.5,0.4v0l0.2-0.3c0.7-1.2,0.5-2.8-0.4-3.8c-0.5-0.5-1.1-0.8-1.7-0.9c-0.4-0.7-1-1.2-1.8-1.4
		c-0.3-1-1.1-1.8-2.2-2.1c-0.2-0.6-0.5-1.1-1-1.5c-1.3-1.1-3.3-0.9-4.4,0.4l-1.2,1.5H6.9c-0.4,0-0.8-0.3-1-0.7V10.5
		c0-0.4,0.4-0.8,0.8-0.8h5.7c0.1,0,0.1,0,0.2,0c0.2,0.1,0.3,0.3,0.2,0.5c-0.4,0.7-0.5,1.6-0.3,2.4c0.3,0.8,0.9,1.4,1.7,1.7
		c1.5,0.5,3,0.4,4.4-0.3l4.2-2.3c0.1-0.1,0.3,0,0.4,0.1l8.7,10.5l1.1,1.3c0.1,0.1,0.1,0.2,0.2,0.3C33.7,24.8,33.5,25.8,32.6,26.3z
		 M39.1,21.7c0,0.4-0.4,0.8-0.8,0.8h-2c-0.3,0-0.6,0.1-0.8,0.3l-0.4,0.4c-0.1,0.1-0.3,0.1-0.4,0L24,10.1c-0.3-0.3-0.7-0.4-1.1-0.2
		L18,12.7c-1,0.5-2.2,0.6-3.2,0.2c-0.5-0.2-0.8-0.9-0.6-1.4c0-0.1,0.1-0.3,0.2-0.4l5.8-4.3c1.6-1.2,3.7-1.5,5.5-0.8l9.2,3.5
		c0.6,0.2,1.2,0.3,1.9,0.3h1.5c0.4,0,0.8,0.3,0.8,0.8V21.7z"/>
</g>
</svg>
