<?xml version="1.0" encoding="utf-8"?>
<!-- Generator: Adobe Illustrator 21.0.0, SVG Export Plug-In . SVG Version: 6.00 Build 0)  -->
<svg version="1.1" id="图层_1" xmlns="http://www.w3.org/2000/svg" xmlns:xlink="http://www.w3.org/1999/xlink" x="0px" y="0px"
	 viewBox="0 0 200 200" style="enable-background:new 0 0 200 200;" xml:space="preserve">
<style type="text/css">
	.st0{fill:#4F4F4F;}
</style>
<path class="st0" d="M57.1,7.1C70,4.6,84,3.3,99.1,3.3c15.1,0,29.2,1.3,42,3.8c12.9,2.5,23.1,5.9,30.6,10.2c7.5,4.3,11.3,9,11.3,14
	v14c0,5-3.7,9.7-11.3,14c-7.5,4.3-17.7,7.7-30.6,10.2c-12.9,2.5-26.9,3.7-42,3.7c-15.1,0-29.2-1.3-42-3.8C44.2,67,34,63.6,26.5,59.3
	c-7.5-4.3-11.3-9-11.3-14v-14c0-5,3.7-9.7,11.3-14C34,13,44.2,9.6,57.1,7.1z M50.8,82.5c15,3.1,31.1,4.7,48.4,4.7s33.4-1.6,48.4-4.7
	c15-3.1,26.8-7.8,35.5-13.9v18.6c0,5-3.7,9.7-11.3,14c-7.5,4.3-17.7,7.7-30.6,10.2c-12.9,2.5-26.9,3.7-42,3.7
	c-15.1,0-29.2-1.3-42-3.8c-12.9-2.5-23.1-5.9-30.6-10.2c-7.5-4.3-11.3-9-11.3-14V68.6C24,74.8,35.8,79.4,50.8,82.5L50.8,82.5z
	 M50.8,124.4c15,3.1,31.1,4.7,48.4,4.7s33.4-1.6,48.4-4.7c15-3.1,26.8-7.8,35.5-13.9v18.6c0,5-3.7,9.7-11.3,14s-17.7,7.7-30.6,10.2
	c-12.9,2.5-26.9,3.8-42,3.8s-29.2-1.3-42-3.8s-23.1-5.9-30.6-10.2s-11.3-9-11.3-14v-18.6C24,116.7,35.8,121.3,50.8,124.4z
	 M50.8,166.4c15,3.1,31.1,4.7,48.4,4.7s33.4-1.6,48.4-4.7c15-3.1,26.8-7.8,35.5-13.9V171c0,5-3.7,9.7-11.3,14s-17.7,7.7-30.6,10.2
	c-12.9,2.5-26.9,3.7-42,3.7c-15.1,0-29.2-1.3-42-3.8S34,189.3,26.5,185c-7.5-4.3-11.3-9-11.3-14v-18.6
	C24,158.6,35.8,163.2,50.8,166.4L50.8,166.4z"/>
</svg>
