<?xml version="1.0" encoding="utf-8"?>
<!-- Generator: Adobe Illustrator 21.0.0, SVG Export Plug-In . SVG Version: 6.00 Build 0)  -->
<svg version="1.1" id="图层_1" xmlns="http://www.w3.org/2000/svg" xmlns:xlink="http://www.w3.org/1999/xlink" x="0px" y="0px"
	 viewBox="0 0 48.8 42.9" style="enable-background:new 0 0 48.8 42.9;" xml:space="preserve">
<path d="M46.7,39h-3.2V15.6c0-1.9-1.6-3.5-3.5-3.5H27.9V3.9c0-1.9-1.6-3.5-3.5-3.5l0,0H8.5C6.5,0.4,4.9,2,4.9,3.9l0,0V39H2.1
	c-1,0-1.8,0.8-1.8,1.8c0,1,0.8,1.8,1.8,1.8h44.6c1,0,1.8-0.8,1.8-1.8C48.5,39.8,47.7,39,46.7,39C46.7,39,46.7,39,46.7,39z
	 M32.5,20.1c0-0.2,0.2-0.4,0.4-0.4h3.8c0.2,0,0.4,0.2,0.4,0.4v1.6c0,0.2-0.2,0.4-0.4,0.4c0,0,0,0,0,0h-3.8c-0.2,0-0.4-0.2-0.4-0.4
	c0,0,0,0,0,0C32.5,21.7,32.5,20.1,32.5,20.1z M32.5,29.3c0-0.2,0.2-0.4,0.4-0.4h3.8c0.2,0,0.4,0.2,0.4,0.4v1.6
	c0,0.2-0.2,0.4-0.4,0.4c0,0,0,0,0,0h-3.8c-0.2,0-0.4-0.2-0.4-0.4c0,0,0,0,0,0V29.3z M17.9,11c0-0.2,0.2-0.4,0.4-0.4h3.8
	c0.2,0,0.4,0.2,0.4,0.4v1.6c0,0.2-0.2,0.4-0.4,0.4c0,0,0,0,0,0h-3.8c-0.2,0-0.4-0.2-0.4-0.4c0,0,0,0,0,0V11z M17.9,20.1
	c0-0.2,0.2-0.4,0.4-0.4h3.8c0.2,0,0.4,0.2,0.4,0.4v1.6c0,0.2-0.2,0.4-0.4,0.4c0,0,0,0,0,0h-3.8c-0.2,0-0.4-0.2-0.4-0.4c0,0,0,0,0,0
	V20.1z M17.9,29.3c0-0.2,0.2-0.4,0.4-0.4h3.8c0.2,0,0.4,0.2,0.4,0.4v1.6c0,0.2-0.2,0.4-0.4,0.4c0,0,0,0,0,0h-3.8
	c-0.2,0-0.4-0.2-0.4-0.4c0,0,0,0,0,0V29.3z M10.2,11c0-0.2,0.2-0.4,0.4-0.4c0,0,0,0,0,0h3.8c0.2,0,0.4,0.2,0.4,0.4v1.6
	c0,0.2-0.2,0.4-0.4,0.4c0,0,0,0,0,0h-3.8c-0.2,0-0.4-0.2-0.4-0.4c0,0,0,0,0,0L10.2,11L10.2,11z M10.2,20.1c0-0.2,0.2-0.4,0.4-0.4
	h3.8c0.2,0,0.4,0.2,0.4,0.4v1.6c0,0.2-0.2,0.4-0.4,0.4c0,0,0,0,0,0h-3.8c-0.2,0-0.4-0.2-0.4-0.4c0,0,0,0,0,0L10.2,20.1L10.2,20.1z
	 M10.2,29.3c0-0.2,0.2-0.4,0.4-0.4c0,0,0,0,0,0h3.8c0.2,0,0.4,0.2,0.4,0.4v1.6c0,0.2-0.2,0.4-0.4,0.4c0,0,0,0,0,0h-3.8
	c-0.2,0-0.4-0.2-0.4-0.4c0,0,0,0,0,0L10.2,29.3L10.2,29.3z"/>
</svg>
