<?xml version="1.0" encoding="utf-8"?>
<!-- Generator: Adobe Illustrator 21.0.0, SVG Export Plug-In . SVG Version: 6.00 Build 0)  -->
<svg version="1.1" id="图层_1" xmlns="http://www.w3.org/2000/svg" xmlns:xlink="http://www.w3.org/1999/xlink" x="0px" y="0px"
	 viewBox="0 0 44.4 41.5" style="enable-background:new 0 0 44.4 41.5;" xml:space="preserve">
<path d="M40.6,0.8H3.9C2.3,0.8,1,2,1,3.6v15.7h42.4V3.6C43.4,2,42.2,0.8,40.6,0.8z M1,28.1c0,1.6,1.3,2.8,2.8,2.8h17v6.9h-4.5
	c-0.8,0-1.4,0.6-1.4,1.4c0,0.8,0.6,1.4,1.4,1.4h11.7c0.8,0,1.4-0.6,1.4-1.4c0-0.8-0.6-1.4-1.4-1.4h-4.5v-6.9h17
	c1.6,0,2.8-1.3,2.8-2.8l0,0v-5.9H1L1,28.1z"/>
</svg>
