<?xml version="1.0" standalone="no"?><!DOCTYPE svg PUBLIC "-//W3C//DTD SVG 1.1//EN" "http://www.w3.org/Graphics/SVG/1.1/DTD/svg11.dtd"><svg t="1572427730967" class="icon" viewBox="0 0 1024 1024" version="1.1" xmlns="http://www.w3.org/2000/svg" p-id="45780" xmlns:xlink="http://www.w3.org/1999/xlink" width="200" height="200"><defs><style type="text/css"></style></defs><path d="M921.6 76.8h-819.2c-28.16 0-51.2 23.04-51.2 51.2v588.8c0 28.16 23.04 51.2 51.2 51.2h307.2v102.4h-281.6c-12.8 0-25.6 12.8-25.6 25.6s12.8 25.6 25.6 25.6h768c12.8 0 25.6-12.8 25.6-25.6s-12.8-25.6-25.6-25.6h-281.6v-102.4h307.2c28.16 0 51.2-23.04 51.2-51.2v-588.8c0-28.16-23.04-51.2-51.2-51.2z m-358.4 793.6h-102.4v-102.4h102.4v102.4z m358.4-153.6h-819.2v-588.8h819.2v588.8z" p-id="45781" fill="#ffffff"></path><path d="M281.6 614.4c12.8 0 25.6-12.8 25.6-25.6v-128c0-12.8-12.8-25.6-25.6-25.6s-25.6 12.8-25.6 25.6v128c0 12.8 12.8 25.6 25.6 25.6zM435.2 614.4c12.8 0 25.6-12.8 25.6-25.6v-230.4c0-12.8-12.8-25.6-25.6-25.6s-25.6 12.8-25.6 25.6v230.4c0 12.8 12.8 25.6 25.6 25.6zM588.8 614.4c12.8 0 25.6-12.8 25.6-25.6v-179.2c0-12.8-12.8-25.6-25.6-25.6s-25.6 12.8-25.6 25.6v179.2c0 12.8 12.8 25.6 25.6 25.6zM742.4 614.4c12.8 0 25.6-12.8 25.6-25.6v-281.6c0-12.8-12.8-25.6-25.6-25.6s-25.6 12.8-25.6 25.6v281.6c0 12.8 12.8 25.6 25.6 25.6z" p-id="45782" fill="#ffffff"></path></svg>