<?xml version="1.0" encoding="utf-8"?>
<!-- Generator: Adobe Illustrator 21.0.0, SVG Export Plug-In . SVG Version: 6.00 Build 0)  -->
<svg version="1.1" id="图层_1" xmlns="http://www.w3.org/2000/svg" xmlns:xlink="http://www.w3.org/1999/xlink" x="0px" y="0px"
	 viewBox="0 0 200 200" style="enable-background:new 0 0 200 200;" xml:space="preserve">
<style type="text/css">
	.st0{fill:#4F4F4F;}
</style>
<path class="st0" d="M180,15H20c-5.5,0-10,4.5-10,10v115c0,5.5,4.5,10,10,10h60v20H25c-2.5,0-5,2.5-5,5c0,2.5,2.5,5,5,5h150
	c2.5,0,5-2.5,5-5c0-2.5-2.5-5-5-5h-55v-20h60c5.5,0,10-4.5,10-10V25C190,19.5,185.5,15,180,15L180,15z M110,170H90v-20h20V170z
	 M180,140H20V25h160V140z"/>
<path class="st0" d="M55,120c2.5,0,5-2.5,5-5V90c0-2.5-2.5-5-5-5s-5,2.5-5,5v25C50,117.5,52.5,120,55,120z M85,120c2.5,0,5-2.5,5-5
	V70c0-2.5-2.5-5-5-5c-2.5,0-5,2.5-5,5v45C80,117.5,82.5,120,85,120z M115,120c2.5,0,5-2.5,5-5V80c0-2.5-2.5-5-5-5c-2.5,0-5,2.5-5,5
	v35C110,117.5,112.5,120,115,120z M145,120c2.5,0,5-2.5,5-5V60c0-2.5-2.5-5-5-5s-5,2.5-5,5v55C140,117.5,142.5,120,145,120z"/>
</svg>
