<?xml version="1.0" encoding="utf-8"?>
<!-- Generator: Adobe Illustrator 21.0.0, SVG Export Plug-In . SVG Version: 6.00 Build 0)  -->
<svg version="1.1" id="图层_1" xmlns="http://www.w3.org/2000/svg" xmlns:xlink="http://www.w3.org/1999/xlink" x="0px" y="0px"
	 viewBox="0 0 41.1 39.9" style="enable-background:new 0 0 41.1 39.9;" xml:space="preserve">
<path d="M33.3,0.4h-32c-0.6,0-1,0.4-1,1v7c0,0.6,0.4,1,1,1c0,0,0,0,0,0h32c0.6,0,1-0.4,1-1v-7C34.3,0.8,33.8,0.4,33.3,0.4z M9.2,6.4
	h-3c-0.6,0-1-0.4-1-1c0-0.6,0.4-1,1-1h3c0.6,0,1,0.4,1,1C10.2,5.9,9.8,6.4,9.2,6.4z M34.3,15.5v-2.2c0-0.6-0.4-1-1-1h-32
	c-0.6,0-1,0.4-1,1l0,0v7c0,0.6,0.4,1,1,1h27.2 M9.2,18.4h-3c-0.6,0-1-0.4-1-1c0-0.6,0.4-1,1-1h3c0.6,0,1,0.4,1,1
	C10.2,17.9,9.8,18.4,9.2,18.4z M25.5,24.4H1.3c-0.6,0-1,0.4-1,1v7c0,0.6,0.4,1,1,1h15.5 M9.2,30.4h-3c-0.6,0-1-0.4-1-1
	c0-0.6,0.4-1,1-1h3c0.6,0,1,0.4,1,1C10.3,29.9,9.8,30.4,9.2,30.4z"/>
<path d="M24,37.3l-4.8-4.8l13.3-13.3l4.8,4.8L24,37.3L24,37.3z"/>
<path d="M40.4,18.6L37.9,16c-0.6-0.6-1.7-0.6-2.4,0.1l-2.4,2.4l4.8,4.8l2.4-2.4C41,20.3,41.1,19.2,40.4,18.6L40.4,18.6z"/>
<path d="M18.7,33.2L17,39.4l6.2-1.7L18.7,33.2z"/>
</svg>
