<?xml version="1.0" encoding="utf-8"?>
<!-- Generator: Adobe Illustrator 21.0.0, SVG Export Plug-In . SVG Version: 6.00 Build 0)  -->
<svg version="1.1" id="图层_1" xmlns="http://www.w3.org/2000/svg" xmlns:xlink="http://www.w3.org/1999/xlink" x="0px" y="0px"
	 viewBox="0 0 200 200" style="enable-background:new 0 0 200 200;" xml:space="preserve">
<style type="text/css">
	.st0{fill:#4F4F4F;}
</style>
<path class="st0" d="M140,180v-60c0-5.5,4.5-10,10-10l0,0h20c5.5,0,10,4.5,10,10l0,0v60h10c5.5,0,10,4.5,10,10c0,5.5-4.5,10-10,10
	H10c-5.5,0-10-4.5-10-10c0-5.5,4.5-10,10-10h10V60c0-5.5,4.5-10,10-10h0h20c5.5,0,10,4.5,10,10l0,0v120h20V10c0-5.5,4.5-10,10-10
	c0,0,0,0,0,0h20c5.5,0,10,4.5,10,10c0,0,0,0,0,0v170L140,180L140,180z"/>
</svg>
