<?xml version="1.0" encoding="utf-8"?>
<!-- Generator: Adobe Illustrator 21.0.0, SVG Export Plug-In . SVG Version: 6.00 Build 0)  -->
<svg version="1.1" id="图层_1" xmlns="http://www.w3.org/2000/svg" xmlns:xlink="http://www.w3.org/1999/xlink" x="0px" y="0px"
	 viewBox="0 0 48.4 42.9" style="enable-background:new 0 0 48.4 42.9;" xml:space="preserve">
<path d="M0.5,8c0,4.1,9.4,7.5,21,7.5s21-3.4,21-7.5s-9.4-7.5-21-7.5S0.5,3.9,0.5,8z"/>
<path d="M45.2,26.7h-2.2v-3.8c0-2-1.7-3.6-3.8-3.6s-3.8,1.6-3.8,3.6v3.8h-2.2v-3.8c0-1.5,0.6-2.9,1.7-3.9c1.1-1.1,2.6-1.6,4.2-1.6
	s3.1,0.6,4.2,1.6c1.1,1.1,1.7,2.5,1.7,3.9V26.7z M46.6,26.7H32c-0.7,0-1.3,0.6-1.3,1.3v10.9c0,0.7,0.6,1.3,1.3,1.3h14.7
	c0.7,0,1.3-0.6,1.3-1.3V28C47.9,27.3,47.4,26.7,46.6,26.7z M40.1,33.5v1.3c0,0.4-0.4,0.8-0.8,0.8c-0.4,0-0.8-0.4-0.8-0.8v-1.3
	c-0.3-0.2-0.5-0.6-0.5-1.1c0-0.7,0.6-1.3,1.3-1.3s1.3,0.6,1.3,1.3C40.7,32.9,40.4,33.3,40.1,33.5z"/>
<path d="M30.6,40.5c-0.8,0-1.5-0.7-1.5-1.5v-4.6c-2.4,0.3-4.9,0.5-7.6,0.5c-11.6,0-21-3.4-21-7.5V35c0,4.1,9.4,7.5,21,7.5
	c2.6,0,5.1-0.2,7.5-0.5c2.5-0.3,4.8-0.9,6.8-1.5H30.6z"/>
<path d="M29.1,26.8c0-0.8,0.7-1.5,1.5-1.5h1.6V25c-3.1,0.7-6.8,1-10.7,1c-11.6,0-21-3.4-21-7.5V26c0,4.1,9.4,7.5,21,7.5
	c2.7,0,5.3-0.2,7.6-0.5V26.8z"/>
<path d="M32,23.5c0,0,0.1,0,0.1,0v-1.2c0-1.7,0.7-3.3,2-4.4c1.2-1.2,2.9-1.8,4.6-1.8c0.1,0,0.2,0,0.3,0c0.1,0,0.3,0,0.4,0
	c1.1,0.1,2.1,0.5,3,1.1c0,0,0-0.1,0-0.1V9.5c0,4.1-9.4,7.5-21,7.5s-21-3.4-21-7.5V17c0,4.1,9.4,7.5,21,7.5
	C25.3,24.5,28.9,24.1,32,23.5L32,23.5z"/>
</svg>
