<?xml version="1.0" encoding="utf-8"?>
<!-- Generator: Adobe Illustrator 21.0.0, SVG Export Plug-In . SVG Version: 6.00 Build 0)  -->
<svg version="1.1" id="图层_1" xmlns="http://www.w3.org/2000/svg" xmlns:xlink="http://www.w3.org/1999/xlink" x="0px" y="0px"
	 viewBox="0 0 200 200" style="enable-background:new 0 0 200 200;" xml:space="preserve">
<style type="text/css">
	.st0{fill:#4F4F4F;}
</style>
<path class="st0" d="M186.2,0H32.7C18.6,0.1,7.1,11.6,7,25.7v148.4c0,14.2,11.5,25.8,25.7,25.9h153.5c3.7,0,6.7-3,6.7-6.7V6.7
	C192.9,3,189.9,0,186.2,0C186.2,0,186.2,0,186.2,0z M32.7,13.3h146.7v135.1H32.7c-4.4,0-8.6,1.2-12.4,3.3v-126
	C20.4,18.9,25.9,13.4,32.7,13.3L32.7,13.3z M179.4,186.7H32.7c-6.9,0-12.5-5.6-12.5-12.5c0-6.9,5.6-12.5,12.5-12.5h146.7V186.7z"/>
</svg>
