<?xml version="1.0" encoding="utf-8"?>
<!-- Generator: Adobe Illustrator 21.0.0, SVG Export Plug-In . SVG Version: 6.00 Build 0)  -->
<svg version="1.1" id="图层_1" xmlns="http://www.w3.org/2000/svg" xmlns:xlink="http://www.w3.org/1999/xlink" x="0px" y="0px"
	 viewBox="0 0 29.8 29.8" style="enable-background:new 0 0 29.8 29.8;" xml:space="preserve">
<path d="M0.8,8.1l11.9-7.6c0.5-0.3,1.1-0.3,1.6,0l12.1,7.4c0.4,0.3,0.7,0.8,0.7,1.3l0,3l0,0.2c-1.8-1.4-4.2-2.3-6.7-2.3
	C14.5,10.1,9.7,15,9.8,20.9c0,2.4,0.8,4.6,2.1,6.3L1.8,27.4c-0.8,0-1.5-0.7-1.5-1.5L0.1,9.4C0.1,8.9,0.4,8.4,0.8,8.1z"/>
<path d="M20.4,11.3c-5.1,0-9.1,4.2-9.1,9.2s4.2,9.1,9.2,9.1c5.1,0,9.1-4.2,9.1-9.2C29.6,15.4,25.4,11.3,20.4,11.3z M23.7,27.1
	c1-6.4-4.4-6.1-4.7-6.1v2.4c-0.2,0.2-0.5,0.2-0.7,0l-4.1-4.1c-0.2-0.2-0.2-0.5,0-0.7l4.1-4.1c0.2-0.2,0.5-0.2,0.7,0V17
	c4.7,0,5.5,2.5,6.1,3.7C26.3,24,23.7,27.1,23.7,27.1z"/>
</svg>
