<?xml version="1.0" encoding="utf-8"?>
<!-- Generator: Adobe Illustrator 21.0.0, SVG Export Plug-In . SVG Version: 6.00 Build 0)  -->
<svg version="1.1" id="图层_1" xmlns="http://www.w3.org/2000/svg" xmlns:xlink="http://www.w3.org/1999/xlink" x="0px" y="0px"
	 viewBox="0 0 36.8 38.8" style="enable-background:new 0 0 36.8 38.8;" xml:space="preserve">
<path d="M31.4,22.9c0.9-0.9,2.5-0.9,3.4,0l1.1,1.1c0.9,0.9,0.9,2.5,0,3.4c0,0,0,0,0,0l-8.8,8.8c-0.1,0.1-0.2,0.2-0.3,0.2l-5,1.8
	c-0.5,0.2-1-0.1-1.2-0.5c-0.1-0.2-0.1-0.4,0-0.6l1.8-5c0-0.1,0.1-0.2,0.2-0.3L31.4,22.9L31.4,22.9z"/>
<path d="M30.9,4.1h-3.5v0c0-2.1-1.7-3.8-3.8-3.8H11.2C9.1,0.2,7.4,1.9,7.4,4v0H4c-2.1,0-3.8,1.7-3.8,3.8v26.9c0,2.1,1.7,3.8,3.8,3.8
	h10.6l4.2,0l3.2-7.4l12.8-12.9V7.9C34.7,5.8,33,4.1,30.9,4.1z M9.2,4C9.2,4,9.2,4,9.2,4c0-1.1,0.9-2,2-2h12.4c0,0,0,0,0,0
	c1.1,0,2,0.9,2,2v1.5c0,1.1-0.9,2-2,2H11.2c0,0,0,0,0,0c-1.1,0-2-0.9-2-2V4z M25.6,22.2H9.3c-0.9,0-1.7-0.8-1.7-1.7s0.8-1.7,1.7-1.7
	h16.3c0.9,0,1.7,0.8,1.7,1.7S26.5,22.2,25.6,22.2z M25.6,15.2H9.3c-0.9,0-1.7-0.8-1.7-1.7s0.8-1.7,1.7-1.7h16.3
	c0.9,0,1.7,0.8,1.7,1.7S26.5,15.2,25.6,15.2z"/>
</svg>
