<?xml version="1.0" encoding="utf-8"?>
<!-- Generator: Adobe Illustrator 21.0.0, SVG Export Plug-In . SVG Version: 6.00 Build 0)  -->
<svg version="1.1" id="图层_1" xmlns="http://www.w3.org/2000/svg" xmlns:xlink="http://www.w3.org/1999/xlink" x="0px" y="0px"
	 viewBox="0 0 46.3 46.9" style="enable-background:new 0 0 46.3 46.9;" xml:space="preserve">
<path d="M23,41.9H5V5H23c1.3,0,2.3-1.1,2.3-2.4s-1-2.4-2.3-2.4H3.1c-1.6,0-2.9,1.3-2.9,2.9v40.8c0,1.6,1.3,2.9,2.9,2.9H23
	c1.3,0,2.3-1.1,2.3-2.4S24.3,41.9,23,41.9z"/>
<path d="M45.4,21.7l-9-9c-0.9-0.9-2.5-0.9-3.4,0c-0.9,0.9-0.9,2.5,0,3.4l4.7,4.7H20.4c-1.4,0-2.6,1.2-2.6,2.6c0,1.4,1.2,2.6,2.6,2.6
	h17.3L33,30.7c-0.9,0.9-0.9,2.5,0,3.4c0.9,0.9,2.5,0.9,3.4,0l9-9C46.4,24.2,46.4,22.7,45.4,21.7z"/>
</svg>
