<?xml version="1.0" encoding="utf-8"?>
<!-- Generator: Adobe Illustrator 21.0.0, SVG Export Plug-In . SVG Version: 6.00 Build 0)  -->
<svg version="1.1" id="图层_1" xmlns="http://www.w3.org/2000/svg" xmlns:xlink="http://www.w3.org/1999/xlink" x="0px" y="0px"
	 viewBox="0 0 51.3 48.4" style="enable-background:new 0 0 51.3 48.4;" xml:space="preserve">
<path d="M35.1,23.9c-7.8,3-11.7,11.8-8.7,19.6c0.3,0.8,0.7,1.6,1.1,2.3L0.4,45.7c-1.2-10.1,4.5-19.8,14-23.7
	C9.2,17.3,8.9,9.3,13.7,4.2s12.7-5.4,17.9-0.7s5.4,12.7,0.7,17.9c-0.2,0.2-0.4,0.5-0.7,0.7C32.8,22.6,34,23.2,35.1,23.9L35.1,23.9z
	 M32.2,29c1.1-1,2.5-1.8,4-2.3c0.8,1,2.1,1.7,3.6,1.7c1.4,0,2.5-1.2,3.3-2.2c1.5,0.5,3.1,1.8,4.2,2.8c-0.5,1.3-0.4,2.7,0.3,3.9
	c0.7,1.2,1.9,2,3.3,2.2c0.3,1.5,0.3,3.1,0,4.6c-1.4,0.2-2.6,1-3.3,2.2c-0.7,1.2-0.8,2.6-0.3,3.9c-1.2,1-2.5,1.8-4,2.3
	c-0.9-1.1-2.2-1.7-3.6-1.7c-1.4,0-2.7,0.7-3.5,1.7c-1.6-0.5-3-1.4-4.2-2.5c0.5-1.3,0.4-2.7-0.3-3.9c-0.7-1.2-1.8-1.9-3.1-2.2
	c-0.3-1.6-0.3-4.2,0.1-5.8c1.3-0.2,2.5-1,3.2-2.2C32.6,30.5,32.6,30.2,32.2,29z M39.8,42c2.5,0,4.5-2,4.5-4.5s-2-4.5-4.5-4.5
	c0,0,0,0,0,0c-2.5,0-4.5,2-4.5,4.5C35.2,40,37.2,42,39.8,42z"/>
</svg>
