<?xml version="1.0" standalone="no"?><!DOCTYPE svg PUBLIC "-//W3C//DTD SVG 1.1//EN" "http://www.w3.org/Graphics/SVG/1.1/DTD/svg11.dtd"><svg t="1565254071407" class="icon" viewBox="0 0 1027 1024" version="1.1" xmlns="http://www.w3.org/2000/svg" p-id="3908" xmlns:xlink="http://www.w3.org/1999/xlink" width="200.5859375" height="200"><defs><style type="text/css"></style></defs><path d="M971.992749 968.460711H55.539289V79.812016h610.95225a27.764627 27.764627 0 0 0 27.764627-27.774662 27.764627 27.764627 0 0 0-27.764627-27.764628H55.539289A55.539289 55.539289 0 0 0 0 79.812016v888.648695a55.539289 55.539289 0 0 0 55.539289 55.539289h916.423357a55.539289 55.539289 0 0 0 55.539289-55.539289V357.508461a27.764627 27.764627 0 0 0-27.764627-27.764627 27.764627 27.764627 0 0 0-27.764628 27.764627z" p-id="3909"></path><path d="M244.924753 756.80936l60.927654-182.772927a41.852642 41.852642 0 0 1 10.094404-16.325641L863.04142 10.606148a36.223457 36.223457 0 0 1 51.174413 0l99.338566 99.288395a36.223457 36.223457 0 0 1 0.632155 50.562327L481.23013 720.736416a41.782403 41.782403 0 0 1-20.871133 11.910594l-196.228788 45.284338a16.365778 16.365778 0 0 1-19.205456-21.121988zM357.518496 594.676779l-37.808861 113.386444 124.123037-28.637602 492.779493-518.035571a36.223457 36.223457 0 0 0-0.632155-50.562327l-21.72404-21.683903a36.223457 36.223457 0 0 0-51.174413 0z" p-id="3910"></path><path d="M313.611853 571.542934l39.27285-39.271846 138.85324 138.85324-39.271847 39.27285zM757.943224 127.21357L797.217078 87.941723l138.85324 138.85324-39.271847 39.27285z" p-id="3911"></path></svg>