<?xml version="1.0" standalone="no"?><!DOCTYPE svg PUBLIC "-//W3C//DTD SVG 1.1//EN" "http://www.w3.org/Graphics/SVG/1.1/DTD/svg11.dtd"><svg t="1565233720263" class="icon" viewBox="0 0 1024 1024" version="1.1" xmlns="http://www.w3.org/2000/svg" p-id="18909" xmlns:xlink="http://www.w3.org/1999/xlink" width="200" height="200"><defs><style type="text/css"></style></defs><path d="M1023.432 19.414c-0.214-1.706-0.426-3.414-1.066-5.12-0.214-0.64-0.426-1.494-0.64-2.134-1.066-2.346-2.56-4.48-4.266-6.4-1.92-1.706-4.054-3.2-6.4-4.266-0.64-0.214-1.494-0.64-2.134-0.64-1.706-0.426-3.414-0.854-5.12-0.854h-2.346c-1.92 0-4.054 0.426-5.974 1.066-0.426 0.214-0.854 0.214-1.28 0.426h-0.214L12.872 427.734c-10.88 4.694-15.786 17.28-11.094 28.16a20.426 20.426 0 0 0 9.6 10.24l356.694 188.8 189.014 356.694c3.626 7.04 10.88 11.306 18.774 11.52h0.854c8.106-0.214 15.36-5.334 18.774-12.8L1021.938 29.44v-0.214c0.214-0.426 0.214-0.854 0.426-1.28 0.64-1.92 1.066-3.84 1.066-5.974 0-0.852 0.214-1.706 0-2.558zM70.684 448.854l837.76-364.16-528.214 528-309.546-163.84z m503.68 503.68l-163.84-309.546 528-528.214-364.16 837.76z" p-id="18910"></path></svg>