<?xml version="1.0" standalone="no"?><!DOCTYPE svg PUBLIC "-//W3C//DTD SVG 1.1//EN" "http://www.w3.org/Graphics/SVG/1.1/DTD/svg11.dtd"><svg t="1565230931107" class="icon" viewBox="0 0 1024 1024" version="1.1" xmlns="http://www.w3.org/2000/svg" p-id="8833" xmlns:xlink="http://www.w3.org/1999/xlink" width="200" height="200"><defs><style type="text/css"></style></defs><path d="M512 81.29c14.966 0 25.206 3.544 28.83 5.671l324.765 187.55c13.233 7.64 28.83 34.658 28.83 49.94v375.02c0 15.281-15.597 42.299-28.83 49.94L540.83 936.96c-3.624 2.127-13.864 5.75-28.83 5.75s-25.206-3.544-28.83-5.671l-324.844-187.55c-13.233-7.64-28.83-34.658-28.83-49.94V324.45c0-15.28 15.597-42.299 28.83-49.94L483.092 86.962A65.063 65.063 0 0 1 512 81.29m0-78.77c-24.734 0-49.467 5.436-68.214 16.227l-324.844 187.55c-37.495 21.661-68.215 74.83-68.215 118.153v375.02c0 43.324 30.72 96.493 68.215 118.155l324.765 187.55c18.747 10.79 43.48 16.226 68.214 16.226s49.467-5.435 68.214-16.227l324.766-187.55c37.494-21.66 68.214-74.83 68.214-118.153V324.45c0-43.324-30.72-96.493-68.214-118.154L580.214 18.826C561.467 7.956 536.734 2.52 512 2.52z" p-id="8834" fill="#ffffff"></path><path d="M795.097 323.978a39.7 39.7 0 0 0-19.693 5.277L491.993 526.178a39.463 39.463 0 0 0 39.384 68.293L814.79 397.548a39.385 39.385 0 0 0-19.692-73.57z" p-id="8835" fill="#ffffff"></path><path d="M228.903 324.608a39.306 39.306 0 0 0-19.692 73.492l283.412 196.923a39.306 39.306 0 0 0 39.306-68.214L248.517 329.886a39.227 39.227 0 0 0-19.614-5.278z" p-id="8836" fill="#ffffff"></path><path d="M511.685 521.846a39.385 39.385 0 0 0-39.385 39.385v267.106a39.385 39.385 0 0 0 78.77 0V561.231a39.385 39.385 0 0 0-39.385-39.385z" p-id="8837" fill="#ffffff"></path></svg>