<?xml version="1.0" encoding="utf-8"?>
<!-- Generator: Adobe Illustrator 21.0.0, SVG Export Plug-In . SVG Version: 6.00 Build 0)  -->
<svg version="1.1" id="图层_1" xmlns="http://www.w3.org/2000/svg" xmlns:xlink="http://www.w3.org/1999/xlink" x="0px" y="0px"
	 viewBox="0 0 48.3 48" style="enable-background:new 0 0 48.3 48;" xml:space="preserve">
<path d="M39.5,48h-6.4c-2,0-3.5-1.6-3.5-3.5V33.3c0-0.7-0.6-1.3-1.3-1.3h-8.5c-0.7,0-1.3,0.6-1.3,1.3v11.3c0,1.9-1.6,3.5-3.5,3.5
	H8.7c-1.9,0-3.5-1.6-3.5-3.5l0-21H1.4c-0.6,0-1.1-0.3-1.3-0.9c-0.2-0.5-0.1-1.1,0.3-1.5L23.1,0.4c0.5-0.6,1.6-0.6,2.1,0L47.8,21
	c0.4,0.3,0.6,0.7,0.6,1.1c0,0.8-0.6,1.4-1.4,1.4c0,0,0,0,0,0H43v21C43,46.4,41.5,48,39.5,48z M19.8,29.1h8.5c2.3,0,4.2,1.9,4.2,4.2
	v11.3c0,0.3,0.3,0.6,0.7,0.6h6.4c0.3,0,0.6-0.3,0.6-0.6V22.1c0-0.8,0.6-1.4,1.4-1.4c0,0,0,0,0,0h2L24.2,3.5L4.7,20.7h2
	c0.8,0,1.4,0.6,1.4,1.4l0,22.4c0,0.3,0.3,0.6,0.6,0.6H15c0.3,0,0.6-0.3,0.6-0.6V33.3C15.6,31,17.5,29.1,19.8,29.1z"/>
</svg>
