<?xml version="1.0" encoding="utf-8"?>
<!-- Generator: Adobe Illustrator 21.0.0, SVG Export Plug-In . SVG Version: 6.00 Build 0)  -->
<svg version="1.1" id="图层_1" xmlns="http://www.w3.org/2000/svg" xmlns:xlink="http://www.w3.org/1999/xlink" x="0px" y="0px"
	 viewBox="0 0 39.1 39.1" style="enable-background:new 0 0 39.1 39.1;" xml:space="preserve">
<path d="M38.4,18.4L20.7,0.6C20,0,19,0,18.4,0.6L0.6,18.4c-0.5,0.5-0.6,1.2-0.3,1.8c0,0,0,0.1,0.1,0.1l0,0c0,0,0,0,0,0l0,0
	c0.1,0.2,0.4,0.3,0.6,0.3c0,0,0,0,0.1,0c0,0,0,0,0,0h3.1v16.7c0,0.9,0.8,1.6,1.7,1.6h27.4c0.9,0,1.6-0.7,1.6-1.6V20.6H38
	c0,0,0.1,0,0.1,0c0.3,0,0.5-0.1,0.6-0.3c0,0,0,0,0,0C39.1,19.7,39,18.9,38.4,18.4z M25.1,36.5H13.9v-9.9c0-3.1,2.5-5.9,5.6-5.9
	s5.6,2.8,5.6,5.9V36.5z"/>
</svg>
