<?xml version="1.0" encoding="utf-8"?>
<!-- Generator: Adobe Illustrator 21.0.0, SVG Export Plug-In . SVG Version: 6.00 Build 0)  -->
<svg version="1.1" id="图层_1" xmlns="http://www.w3.org/2000/svg" xmlns:xlink="http://www.w3.org/1999/xlink" x="0px" y="0px"
	 viewBox="0 0 39 38" style="enable-background:new 0 0 39 38;" xml:space="preserve">
<path d="M6.6,31.8c-0.2,0-0.5,0-0.7,0h0C4.4,31.7,3,31.2,2,30.1c-2.3-2.3-2.3-6.1,0-8.5c0.4-0.4,0.9-0.8,1.4-1.1l0,0l0.1-0.1
	c0.1-0.1,0.3-0.1,0.5-0.2l19.9-9l0,0c3.9-1.7,8.6-0.9,11.8,2.3c4.2,4.2,4.2,10.9,0,15.1c-2,2-4.7,3.1-7.4,3.1l0,0
	C28.2,31.8,6.6,31.8,6.6,31.8z M6.2,29.6c2.1,0,3.8-1.7,3.8-3.8s-1.7-3.8-3.8-3.8c-2.1,0-3.8,1.7-3.8,3.8S4.1,29.6,6.2,29.6z
	 M28.1,28.3c3.9,0,7.1-3.2,7.1-7.1S32,14,28.1,14c-3.9,0-7.1,3.2-7.1,7.1S24.2,28.3,28.1,28.3z M4.3,33.4H35v3.8
	c0,0.4-0.3,0.8-0.8,0.8H3.5v-3.8C3.5,33.8,3.8,33.4,4.3,33.4z"/>
<path d="M9.4,5.5L0.8,9.2C0.5,9.3,0.4,9.7,0.5,9.9l4,9.1c0.1,0.3,0.4,0.4,0.7,0.3c0,0,0,0,0,0l8.6-3.8c0.3-0.1,0.4-0.4,0.3-0.7
	l-3.9-9.1C10.1,5.5,9.7,5.3,9.4,5.5C9.5,5.5,9.5,5.5,9.4,5.5z M9.2,9.9c0.1,0.3,0,0.6-0.3,0.7l-4,1.8c-0.3,0.1-0.6,0-0.7-0.3L4,11.7
	c-0.1-0.3,0-0.6,0.3-0.7l4-1.8c0.3-0.1,0.6,0,0.7,0.3L9.2,9.9z M20.4,0.7l-8.6,3.8c-0.3,0.1-0.4,0.4-0.3,0.7l4,9.1
	c0.1,0.3,0.4,0.4,0.7,0.3c0,0,0,0,0,0l8.6-3.8c0.3-0.1,0.4-0.4,0.3-0.7L21.2,1C21.1,0.7,20.7,0.6,20.4,0.7
	C20.5,0.7,20.4,0.7,20.4,0.7z M20.2,5.1c0.1,0.3,0,0.6-0.3,0.7c0,0,0,0,0,0l-4,1.8c-0.3,0.1-0.6,0-0.7-0.3L15,6.9
	c-0.1-0.3,0-0.6,0.3-0.7l4-1.8c0.3-0.1,0.6,0,0.7,0.3L20.2,5.1z"/>
</svg>
