<?xml version="1.0" encoding="utf-8"?>
<!-- Generator: Adobe Illustrator 21.0.0, SVG Export Plug-In . SVG Version: 6.00 Build 0)  -->
<svg version="1.1" id="图层_1" xmlns="http://www.w3.org/2000/svg" xmlns:xlink="http://www.w3.org/1999/xlink" x="0px" y="0px"
	 viewBox="0 0 200 200" style="enable-background:new 0 0 200 200;" xml:space="preserve">
<style type="text/css">
	.st0{fill:#4F4F4F;}
</style>
<path class="st0" d="M186.9,137.7h-12.4v-29c0-6.9-5.6-12.4-12.4-12.4h-55.8V67.4h15c6.9,0,12.4-5.6,12.4-12.4V12.4
	c0-6.9-5.6-12.4-12.4-12.4H78.7c-6.9,0-12.4,5.6-12.4,12.4V55c0,6.9,5.6,12.4,12.4,12.4h15v28.9H37.7c-6.9,0-12.4,5.6-12.4,12.4v29
	H12.8c-6.9,0-12.4,5.6-12.4,12.4v37.3c0,6.9,5.6,12.4,12.4,12.4h37.3c6.9,0,12.4-5.6,12.4-12.4v-37.3c0-6.9-5.6-12.4-12.4-12.4H37.7
	v-29h56v29H81.2c-6.9,0-12.4,5.6-12.4,12.4v37.3c0,6.9,5.6,12.4,12.4,12.4h37.3c6.9,0,12.4-5.6,12.4-12.4v-37.3
	c0-6.9-5.6-12.4-12.4-12.4h-12.4v-29h56v29h-12.4c-6.9,0-12.4,5.6-12.4,12.4v37.3c0,6.9,5.6,12.4,12.4,12.4h37.3
	c6.9,0,12.4-5.6,12.4-12.4v-37.3C199.4,143.3,193.8,137.7,186.9,137.7L186.9,137.7z M78.7,12.4h42.5V55H78.7V12.4z M50.1,187.6H12.8
	v-37.3h37.3V187.6L50.1,187.6z M118.5,187.6H81.2v-37.3h37.3V187.6z M187.1,193.8v-6.2h-37.4v-37.3h37.3v37.3L187.1,193.8z"/>
</svg>
