<?xml version="1.0" encoding="utf-8"?>
<!-- Generator: Adobe Illustrator 21.0.0, SVG Export Plug-In . SVG Version: 6.00 Build 0)  -->
<svg version="1.1" id="图层_1" xmlns="http://www.w3.org/2000/svg" xmlns:xlink="http://www.w3.org/1999/xlink" x="0px" y="0px"
	 viewBox="0 0 39.3 39.2" style="enable-background:new 0 0 39.3 39.2;" xml:space="preserve">
<path d="M21.6,15.2c-0.7-0.7-0.4-2,0.6-2.2c3.5-0.7,7.4,0.3,10.1,3c1.1,1.1,1.9,2.3,2.4,3.6v-4.8h3.7c0.6,0,0.9-1,0.3-1.4l-18.2-13
	c-0.5-0.4-1.2-0.4-1.7,0l-18.3,13C0,13.9,0.3,14.9,1,14.9h3.7v23.3C4.7,38.6,5,39,5.5,39h27.8l-3.9-3.8c-0.5-0.5-1.1-0.6-1.8-0.4
	c-3.8,1.1-8.1,0.2-11.1-2.8c-2.7-2.7-3.7-6.4-3.1-9.9c0.2-1,1.4-1.4,2.2-0.7"/>
<path d="M18.9,30c2.2,2.2,5.4,2.9,8.2,2c0.5-0.1,1,0,1.3,0.3l4.6,4.5c0.6,0.6,1.7,0.6,2.3,0l2.3-2.3c0.6-0.6,0.6-1.7,0-2.3l-4.5-4.5
	c-0.3-0.3-0.4-0.8-0.3-1.3c0.8-2.8,0.1-6-2.1-8.2c-2-2-4.9-2.7-7.5-2.2c-0.7,0.1-1,1.1-0.4,1.6l4.5,4.4c0.6,0.6,0.7,1.6,0,2.3
	L25,26.6c-0.6,0.6-1.7,0.6-2.3,0l-4.5-4.4c-0.5-0.5-1.5-0.2-1.6,0.5C16.2,25.2,17,28,18.9,30z"/>
</svg>
