<?xml version="1.0" encoding="utf-8"?>
<!-- Generator: Adobe Illustrator 21.0.0, SVG Export Plug-In . SVG Version: 6.00 Build 0)  -->
<svg version="1.1" id="图层_1" xmlns="http://www.w3.org/2000/svg" xmlns:xlink="http://www.w3.org/1999/xlink" x="0px" y="0px"
	 viewBox="0 0 43.8 48" style="enable-background:new 0 0 43.8 48;" xml:space="preserve">
<path d="M40.1,0.6H3.9C2.2,0.6,0.7,2,0.7,3.8v40.5c0,1.8,1.4,3.2,3.2,3.2h36.1c1.8,0,3.2-1.4,3.2-3.2V3.8C43.3,2,41.8,0.6,40.1,0.6z
	 M17.7,18.6c0,1.9-1.1,3.5-2.7,4.3V38c0,1.1-0.9,2-2,2h-0.3c-1.1,0-2-0.9-2-2V22.8c-1.6-0.8-2.7-2.4-2.7-4.3v-2.4
	c0-1.9,1.1-3.5,2.7-4.3V9c0-1.1,0.9-2,2-2h0.3c1.1,0,2,0.9,2,2v2.9c1.6,0.8,2.7,2.4,2.7,4.3V18.6z M35.8,30.8c0,1.9-1.1,3.5-2.7,4.3
	V38c0,1.1-0.9,2-2,2h-0.3c-1.1,0-2-0.9-2-2v-2.9c-1.6-0.8-2.7-2.4-2.7-4.3v-2.4c0-1.9,1.1-3.5,2.7-4.3V9c0-1.1,0.9-2,2-2h0.3
	c1.1,0,2,0.9,2,2v15.1c1.6,0.8,2.7,2.4,2.7,4.3C35.8,28.4,35.8,30.8,35.8,30.8z"/>
</svg>
