<?xml version="1.0" encoding="utf-8"?>
<!-- Generator: Adobe Illustrator 21.0.0, SVG Export Plug-In . SVG Version: 6.00 Build 0)  -->
<svg version="1.1" id="图层_1" xmlns="http://www.w3.org/2000/svg" xmlns:xlink="http://www.w3.org/1999/xlink" x="0px" y="0px"
	 viewBox="0 0 39.9 30.6" style="enable-background:new 0 0 39.9 30.6;" xml:space="preserve">
<path d="M4.5,0.5c-2.2,0-4,1.8-4,4s1.8,4,4,4s4-1.8,4-4S6.7,0.5,4.5,0.5z M4.5,11.3c-2.2,0-4,1.8-4,4s1.8,4,4,4s4-1.8,4-4
	S6.7,11.3,4.5,11.3z M4.5,22.1c-2.2,0-4,1.8-4,4s1.8,4,4,4s4-1.8,4-4S6.7,22.1,4.5,22.1z M15.3,7.2h21.5c1.5,0,2.7-1.2,2.7-2.7
	c0-1.5-1.2-2.7-2.7-2.7H15.3c-1.5,0-2.7,1.2-2.7,2.7S13.8,7.2,15.3,7.2z M36.8,12.6H15.3c-1.5,0-2.7,1.2-2.7,2.7
	c0,1.5,1.2,2.7,2.7,2.7h21.5c1.5,0,2.7-1.2,2.7-2.7C39.5,13.8,38.3,12.6,36.8,12.6z M36.8,23.4H15.3c-1.5,0-2.7,1.2-2.7,2.7
	c0,1.5,1.2,2.7,2.7,2.7h21.5c1.5,0,2.7-1.2,2.7-2.7C39.5,24.6,38.3,23.4,36.8,23.4z"/>
</svg>
