<?xml version="1.0" encoding="utf-8"?>
<!-- Generator: Adobe Illustrator 21.0.0, SVG Export Plug-In . SVG Version: 6.00 Build 0)  -->
<svg version="1.1" id="图层_1" xmlns="http://www.w3.org/2000/svg" xmlns:xlink="http://www.w3.org/1999/xlink" x="0px" y="0px"
	 viewBox="0 0 50.3 49.2" style="enable-background:new 0 0 50.3 49.2;" xml:space="preserve">
<g>
	<path d="M14.8,37.2c0-3.7,8-11.2,18.5-11.2c2.9,0,5.5,0.5,7.8,1.4l6.9-6.9c0.9-0.9,0.7-2.5-0.3-3.5L32.2,1.4
		c-1.1-1.1-2.6-1.2-3.5-0.3L16.6,13.2l-1-1c-1.1-1.1-2.7-1.2-3.6-0.3l-9,9c-0.6,0.6-0.7,1.5-0.4,2.4l2,12.4l-3.2,3.2
		c-1.1,1.1-1.1,2.8,0,3.9l4.8,4.8c1.1,1.1,2.8,1.1,3.9,0l3.2-3.2l9.9,1.7C18.1,43.5,14.8,39.6,14.8,37.2z M36.8,14.9
		c0.4-0.4,1-0.4,1.4,0l2.7,2.7c0.4,0.4,0.4,1,0,1.4l-2,2c-0.4,0.4-1,0.4-1.4,0l-2.7-2.7c-0.4-0.4-0.4-1,0-1.4L36.8,14.9z M28.1,10.2
		l2-2c0.4-0.4,1-0.4,1.4,0l2.7,2.7c0.4,0.4,0.4,1,0,1.4l-2,2c-0.4,0.4-1,0.4-1.4,0l-2.7-2.7C27.7,11.2,27.7,10.6,28.1,10.2z"/>
</g>
<path d="M49.8,37.3c0,3.1-6.8,9.9-16.3,9.9c-9.3,0-16.3-6.6-16.3-9.9c0-3.3,7-9.9,16.3-9.9C43.2,27.4,49.8,34.1,49.8,37.3L49.8,37.3
	L49.8,37.3z M33.5,29.2c-4.4,0-7.9,3.6-7.9,8.1s3.5,8.1,7.9,8.1s7.9-3.6,7.9-8.1C41.3,32.8,37.8,29.2,33.5,29.2L33.5,29.2z
	 M33.5,32.2c-2.8,0-5,2.3-5,5.1s2.3,5.1,5,5.1s5-2.3,5-5.1S36.3,32.2,33.5,32.2L33.5,32.2z"/>
</svg>
