<?xml version="1.0" encoding="utf-8"?>
<!-- Generator: Adobe Illustrator 21.0.0, SVG Export Plug-In . SVG Version: 6.00 Build 0)  -->
<svg version="1.1" id="图层_1" xmlns="http://www.w3.org/2000/svg" xmlns:xlink="http://www.w3.org/1999/xlink" x="0px" y="0px"
	 viewBox="0 0 45.1 42.3" style="enable-background:new 0 0 45.1 42.3;" xml:space="preserve">
<path d="M40.9,27.2V30h-4.2v-4.2h2.8l-4.2-4.2l-4.2,4.2h2.8V30h-4.2v-2.8l-4.2,4.2l1.4,1.4l2.8,2.8v-2.8h4.2V37h-2.8l4.2,4.2
	l1.4-1.4l2.8-2.8h-2.8v-4.2h4.2v2.8l4.2-4.2L40.9,27.2z"/>
<path d="M22.6,31.5l13.2-13.2l3.3,3.3v-2.7l0.5,0.4c0.3,0.2,0.6,0.4,1,0.4c0.4,0,0.8-0.2,1.1-0.5c0.5-0.6,0.5-1.6-0.2-2.1L22.1,0.6
	c-0.6-0.5-1.4-0.5-1.9,0L0.6,17.1c-0.6,0.5-0.7,1.5-0.2,2.1s1.5,0.7,2.1,0.2l0.5-0.4v21.3c0,1.1,0.9,2,2,2h28.3L22.6,31.5z
	 M11.1,38.2c0,0.3-0.3,0.6-0.6,0.6H7.2c-0.3,0-0.6-0.3-0.6-0.6v-3.4c0-0.3,0.3-0.6,0.6-0.6h3.4c0.3,0,0.6,0.3,0.6,0.6V38.2z
	 M11.1,32.2c0,0.3-0.3,0.6-0.6,0.6H7.2c-0.3,0-0.6-0.3-0.6-0.6v-3.4c0-0.3,0.3-0.6,0.6-0.6h3.4c0.3,0,0.6,0.3,0.6,0.6V32.2z
	 M11.1,26.3c0,0.3-0.3,0.6-0.6,0.6H7.2c-0.3,0-0.6-0.3-0.6-0.6v-3.4c0-0.3,0.3-0.6,0.6-0.6h3.4c0.3,0,0.6,0.3,0.6,0.6V26.3z
	 M20.1,38.2c0,0.3-0.3,0.6-0.6,0.6h-3.4c-0.3,0-0.6-0.3-0.6-0.6v-3.4c0-0.3,0.3-0.6,0.6-0.6h3.4c0.3,0,0.6,0.3,0.6,0.6V38.2z
	 M20.1,32.2c0,0.3-0.3,0.6-0.6,0.6h-3.4c-0.3,0-0.6-0.3-0.6-0.6v-3.4c0-0.3,0.3-0.6,0.6-0.6h3.4c0.3,0,0.6,0.3,0.6,0.6V32.2z"/>
</svg>
