<?xml version="1.0" encoding="utf-8"?>
<!-- Generator: Adobe Illustrator 21.0.0, SVG Export Plug-In . SVG Version: 6.00 Build 0)  -->
<svg version="1.1" id="图层_1" xmlns="http://www.w3.org/2000/svg" xmlns:xlink="http://www.w3.org/1999/xlink" x="0px" y="0px"
	 viewBox="0 0 42 33" style="enable-background:new 0 0 42 33;" xml:space="preserve">
<g>
	<path d="M14,29.2c-0.3,0.4-0.4,0.8-0.4,1.3c0,1.3,1.1,2.4,2.4,2.4c1.3,0,2.4-1.1,2.4-2.4c0-0.5-0.2-0.9-0.4-1.3H14z"/>
</g>
<path d="M21.3,25.8h-6.4l-0.2-0.4h6.6c-0.2-0.8-0.3-1.6-0.3-2.5c0-6.3,5.1-11.3,11.3-11.3c2.8,0,5.4,1,7.3,2.7l1.1-4.9
	C40.9,8.2,40,7,38.7,7.1L11.9,7.4l0-0.3l-0.7-4.7C11,1.7,10.4,1.1,9.7,1L2,0.1C1.1,0,0.2,0.7,0.1,1.6C0,2.5,0.7,3.4,1.6,3.5L8,4.2
	l0.5,3.2h0l0,0l2.6,16.7l0,0.3l0.5,3.3c0.1,0.8,0.8,1.4,1.7,1.4H14h4h0h4.8C22.1,28.2,21.6,27,21.3,25.8z"/>
<path d="M32.1,13.3c-5.3,0-9.6,4.3-9.6,9.6c0,5.3,4.3,9.6,9.6,9.6c5.3,0,9.6-4.3,9.6-9.6C41.7,17.4,37.4,13.3,32.1,13.3z M33.9,15.7
	l0.7-0.7c0.2-0.2,0.5-0.2,0.7,0l2,2c0.2,0.2,0.2,0.5,0,0.7l-0.7,0.7c-0.2,0.2-0.5,0.2-0.7,0l-2-2C33.8,16.2,33.8,15.9,33.9,15.7z
	 M26.8,23l5.9-5.9c0.2-0.2,0.5-0.2,0.7,0l2,2c0.2,0.2,0.2,0.5,0,0.7l-5.9,5.9c-0.2,0.2-0.5,0.2-0.7,0l-2-2
	C26.6,23.5,26.6,23.2,26.8,23z M25.7,24.4c0-0.3,0.2-0.3,0.4-0.1l2,2c0.2,0.2,0.1,0.4-0.1,0.4l-2.4,0.5c-0.2,0.1-0.4-0.1-0.4-0.4
	L25.7,24.4z M37.6,28.7H25.6c-0.2,0-0.4-0.2-0.4-0.5c0-0.3,0.2-0.5,0.4-0.5h12.1c0.2,0,0.4,0.2,0.4,0.5C38,28.5,37.9,28.7,37.6,28.7
	z"/>
</svg>
