<?xml version="1.0" encoding="utf-8"?>
<!-- Generator: Adobe Illustrator 21.0.0, SVG Export Plug-In . SVG Version: 6.00 Build 0)  -->
<svg version="1.1" id="图层_1" xmlns="http://www.w3.org/2000/svg" xmlns:xlink="http://www.w3.org/1999/xlink" x="0px" y="0px"
	 viewBox="0 0 39.5 39.2" style="enable-background:new 0 0 39.5 39.2;" xml:space="preserve">
<path d="M38.8,13.5l-18.2-13c-0.5-0.4-1.2-0.4-1.7,0l-18.3,13C0,13.9,0.3,14.9,1,14.9h3.7v23.3C4.7,38.6,5,39,5.5,39H34
	c0.4,0,0.8-0.3,0.8-0.8V14.9h3.7C39.1,14.9,39.4,13.9,38.8,13.5z M27.5,26.9c-0.5,0.6-1.3,0.7-1.9,0.2L21,23.3v11.9
	c0,0.7-0.6,1.4-1.4,1.4s-1.4-0.6-1.4-1.4V23.3l-4.3,4.3c-0.5,0.5-1.4,0.5-1.9,0c-0.5-0.5-0.5-1.4,0-1.9l6.4-6.4
	c0.1-0.1,0.2-0.1,0.3-0.2c0.5-0.3,1.1-0.3,1.6,0.1l7,5.8C27.9,25.5,28,26.3,27.5,26.9z M28.3,17.8H11.1c-0.8,0-1.5-0.7-1.5-1.5
	c0-0.8,0.7-1.5,1.5-1.5h17.1c0.8,0,1.5,0.7,1.5,1.5C29.8,17.1,29.1,17.8,28.3,17.8z"/>
</svg>
