<?xml version="1.0" encoding="utf-8"?>
<!-- Generator: Adobe Illustrator 21.0.0, SVG Export Plug-In . SVG Version: 6.00 Build 0)  -->
<svg version="1.1" id="图层_1" xmlns="http://www.w3.org/2000/svg" xmlns:xlink="http://www.w3.org/1999/xlink" x="0px" y="0px"
	 viewBox="0 0 42.1 38.7" style="enable-background:new 0 0 42.1 38.7;" xml:space="preserve">
<path d="M36.1,19.8c-1.8,1.6-7,6.5-7,6.5l-9.3-0.5L17.1,24h4.6c1.4,0,3.2-1,3.2-3.2s-1.9-3.2-3.2-3.2H9.2c-2,0-2.6,0.8-4.1,1.9
	c-2.2,1.5-4.6,3.2-4.6,3.2l0.2,15.8l10-5.1h18.5c1.4,0,2.3-1.4,2.3-1.4s10.2-9.6,10.2-11.1C41.7,19.3,37.8,18.4,36.1,19.8z"/>
<path d="M27.4,16.5c0.4-0.5,0.8-1.1,1-1.8h2c1,0,1.9-0.8,1.9-1.9V10c0-1-0.8-1.9-1.9-1.9h-2c-0.3-0.6-0.6-1.2-1-1.8l1-1.8
	c0.5-0.9,0.2-2-0.7-2.5l-2.4-1.4c-0.9-0.5-2-0.2-2.5,0.7l-1,1.8c-0.3,0-0.7-0.1-1-0.1s-0.7,0-1,0.1l-1-1.8c-0.5-0.9-1.6-1.2-2.5-0.7
	l-2.4,1.4c-0.9,0.5-1.2,1.6-0.7,2.5l1,1.8c-0.4,0.5-0.8,1.1-1,1.8h-2C10,8.2,9.2,9,9.2,10v2.8c0,1,0.8,1.9,1.9,1.9h2
	c0.2,0.6,0.6,1.1,0.9,1.6h8.9 M20.8,14.3c-1.7,0-3-1.4-3-3c0-1.7,1.4-3,3-3c1.7,0,3,1.4,3,3C23.9,13,22.5,14.3,20.8,14.3z"/>
</svg>
