<?xml version="1.0" encoding="utf-8"?>
<!-- Generator: Adobe Illustrator 21.0.0, SVG Export Plug-In . SVG Version: 6.00 Build 0)  -->
<svg version="1.1" id="图层_1" xmlns="http://www.w3.org/2000/svg" xmlns:xlink="http://www.w3.org/1999/xlink" x="0px" y="0px"
	 viewBox="0 0 200 200" style="enable-background:new 0 0 200 200;" xml:space="preserve">
<style type="text/css">
	.st0{fill:#4F4F4F;}
</style>
<path class="st0" d="M41.1,180.6H16.6c2.8-33.2,28.9-59.7,62-63.1c3.4-0.1,6.1-2.9,6.1-6.3c-0.1-2.9-2.1-5.4-5-5.9
	c-20.1-4.1-34.6-22-34.6-42.5c0-23.9,19.5-43.4,43.4-43.4c8.9,0,17.5,2.7,24.8,7.8c2.8,1.9,6.7,1.1,8.6-1.7c1.8-2.8,1.2-6.5-1.5-8.4
	C111,10.5,100,7,88.5,7C57.7,7,32.7,32,32.7,62.7c0,19.3,10,36.7,25.5,46.8C26.2,121,4,151.4,4,186.8c0,3.4,2.8,6.2,6.2,6.2h30.9
	c3.4,0,6.2-2.8,6.2-6.2C47.3,183.4,44.5,180.6,41.1,180.6z"/>
<path class="st0" d="M149.7,119.7c12.9-8.3,21.5-22.7,21.5-39.2c0-25.6-20.8-46.5-46.5-46.5S78.3,55,78.3,80.6
	c0,16.4,8.6,30.9,21.5,39.2c-27,10.1-46.3,36.2-46.3,66.7v6.2H196v-6.2C196,156,176.8,129.9,149.7,119.7z M90.7,80.6
	c0-18.8,15.3-34.1,34.1-34.1s34.1,15.3,34.1,34.1s-15.3,34.1-34.1,34.1S90.7,99.4,90.7,80.6z M66.3,180.3
	c3.1-29.6,28.2-52.7,58.5-52.7s55.4,23.1,58.5,52.7C183.3,180.3,66.3,180.3,66.3,180.3z"/>
</svg>
