<?xml version="1.0" encoding="utf-8"?>
<!-- Generator: Adobe Illustrator 21.0.0, SVG Export Plug-In . SVG Version: 6.00 Build 0)  -->
<svg version="1.1" id="图层_1" xmlns="http://www.w3.org/2000/svg" xmlns:xlink="http://www.w3.org/1999/xlink" x="0px" y="0px"
	 viewBox="0 0 48 48" style="enable-background:new 0 0 48 48;" xml:space="preserve">
<path d="M24,0.6C11.1,0.6,0.6,11.1,0.6,24S11.1,47.4,24,47.4S47.4,36.9,47.4,24S36.9,0.6,24,0.6z M9.8,39.6
	c2.2-5.7,7.7-9.7,14.1-9.7s11.9,4.1,14.1,9.7c-3.7,3.4-8.7,5.5-14.1,5.5C18.5,45.1,13.6,43,9.8,39.6z M17,20.5c0-3.9,3.1-7,7-7
	s7,3.1,7,7s-3.1,7-7,7S17,24.4,17,20.5z M39.9,37.8c-2.1-4.5-6-8-10.8-9.5c2.5-1.7,4.2-4.5,4.2-7.8c0-5.2-4.2-9.4-9.4-9.4
	s-9.4,4.2-9.4,9.4c0,3.3,1.7,6.1,4.2,7.8c-4.8,1.5-8.7,5-10.8,9.5C4.9,34.1,2.9,29.3,2.9,24C2.9,12.3,12.3,2.9,24,2.9
	S45.1,12.3,45.1,24C45.1,29.3,43.1,34.1,39.9,37.8z"/>
</svg>
