<?xml version="1.0" standalone="no"?><!DOCTYPE svg PUBLIC "-//W3C//DTD SVG 1.1//EN" "http://www.w3.org/Graphics/SVG/1.1/DTD/svg11.dtd"><svg t="1565231761366" class="icon" viewBox="0 0 1024 1024" version="1.1" xmlns="http://www.w3.org/2000/svg" p-id="9917" xmlns:xlink="http://www.w3.org/1999/xlink" width="200" height="200"><defs><style type="text/css"></style></defs><path d="M312.2 926.7c-22 0-42.2-11-54.1-29.7-6.5-10.4-10.1-22.3-10.1-34.8v-701c0-35.4 28.8-64.2 64.2-64.2 12.2 0 24.1 3.6 34.5 10.1l549 350.7c29.7 19 38.7 58.9 19.6 88.9-5.1 7.7-11.9 14.6-19.6 19.6l-549 350.4c-10.4 6.7-22.3 10-34.5 10z m0-787c-11.9 0-21.4 9.5-21.4 21.4v701.3c0 4.2 1.2 8 3.3 11.6 5.9 9.5 19.9 12.8 29.7 6.5l549-350.7c2.7-1.8 4.8-3.9 6.5-6.5 6.2-9.8 3.3-23.2-6.5-29.7L323.8 143c-3.6-2.1-7.8-3.3-11.6-3.3zM119.1 855c-11.9 0-21.4-9.5-21.4-21.4V190c0-11.9 9.5-21.4 21.4-21.4 11.9 0 21.4 9.5 21.4 21.4v643.6c0.1 11.9-9.8 21.4-21.4 21.4z m0 0" p-id="9918"></path></svg>