<?xml version="1.0" encoding="utf-8"?>
<!-- Generator: Adobe Illustrator 21.0.0, SVG Export Plug-In . SVG Version: 6.00 Build 0)  -->
<svg version="1.1" id="图层_1" xmlns="http://www.w3.org/2000/svg" xmlns:xlink="http://www.w3.org/1999/xlink" x="0px" y="0px"
	 viewBox="0 0 47.7 35.9" style="enable-background:new 0 0 47.7 35.9;" xml:space="preserve">
<path d="M47.5,21.3l-6.4-10.1c-0.2-0.3-0.4-0.4-0.7-0.4H34V2c0-1-0.8-1.8-1.7-1.8H1.9C1,0.2,0.2,1,0.2,2v24.9c0,1,0.8,1.8,1.7,1.8
	h1.7c0,3.9,3,7.1,6.8,7.1s6.8-3.2,6.8-7.1h13.5c0,3.9,3,7.1,6.8,7.1s6.8-3.2,6.8-7.1h1.7c0.9,0,1.7-0.8,1.7-1.8v-5
	C47.6,21.6,47.5,21.5,47.5,21.3z M13.7,29.3c-0.3,1.4-1.4,2.5-2.7,2.8c-2.4,0.5-4.4-1.7-4-4.2c0.3-1.4,1.3-2.5,2.7-2.8
	C12.1,24.6,14.2,26.8,13.7,29.3z M15.2,26.5v-3.1H5.4v-4.7h9.8v-4l9.8,5.9L15.2,26.5z M40.8,29.3c-0.3,1.4-1.4,2.5-2.7,2.8
	c-2.4,0.5-4.4-1.7-4-4.2c0.3-1.4,1.3-2.5,2.7-2.8C39.2,24.6,41.2,26.8,40.8,29.3z M34,21.5v-7.1h5c0.3,0,0.6,0.1,0.7,0.4l4.4,6.7H34
	z"/>
</svg>
