<?xml version="1.0" encoding="utf-8"?>
<!-- Generator: Adobe Illustrator 21.0.0, SVG Export Plug-In . SVG Version: 6.00 Build 0)  -->
<svg version="1.1" id="图层_1" xmlns="http://www.w3.org/2000/svg" xmlns:xlink="http://www.w3.org/1999/xlink" x="0px" y="0px"
	 viewBox="0 0 35.9 41.4" style="enable-background:new 0 0 35.9 41.4;" xml:space="preserve">
<path d="M35.3,21.5c-0.4-0.2-0.7-0.2-0.9,0l-18,9c-0.4,0-0.5,0.4-0.5,0.7s0.2,0.7,0.4,0.7l4.3,2.7c0.4,0.2,0.7,0.2,1.1-0.2l9.6-8.7
	l0.4,0.2l-8.7,9.2c-0.2,0.2-0.2,0.4-0.2,0.5v4c0,0.4,0.2,0.7,0.5,0.9c0.4,0.2,0.7,0,0.9-0.2l2.2-2.2l4.3,2.9
	c0.2,0.2,0.4,0.2,0.5,0.2h0.4c0.4-0.2,0.5-0.4,0.5-0.7l3.6-18C35.7,22,35.7,21.7,35.3,21.5z"/>
<path d="M19.7,35.4l-5.2-3.3c-0.2,0-0.4-0.4-0.4-0.9c0-0.4,0.2-0.9,0.7-0.9l20-10V7.9c0-2.1-1.7-3.8-3.8-3.8h-3.5v0
	c0-2.1-1.7-3.8-3.8-3.8H11.2C9.1,0.2,7.4,1.9,7.4,4v0H4c-2.1,0-3.8,1.7-3.8,3.8v26.9c0,2.1,1.7,3.8,3.8,3.8h18.1v-1.7 M9.2,4
	C9.2,4,9.2,4,9.2,4c0-1.1,0.9-2,2-2h12.4c0,0,0,0,0,0c1.1,0,2,0.9,2,2v1.5c0,1.1-0.9,2-2,2H11.2c0,0,0,0,0,0c-1.1,0-2-0.9-2-2V4z
	 M9.3,11.7h16.3c0.9,0,1.7,0.8,1.7,1.7s-0.8,1.7-1.7,1.7H9.3c-0.9,0-1.7-0.8-1.7-1.7S8.3,11.7,9.3,11.7z M7.6,20.5
	c0-0.9,0.8-1.7,1.7-1.7h16.3c0.9,0,1.7,0.8,1.7,1.7s-0.8,1.7-1.7,1.7H9.3C8.3,22.2,7.6,21.4,7.6,20.5z"/>
</svg>
