<?xml version="1.0" encoding="utf-8"?>
<!-- Generator: Adobe Illustrator 21.0.0, SVG Export Plug-In . SVG Version: 6.00 Build 0)  -->
<svg version="1.1" id="图层_1" xmlns="http://www.w3.org/2000/svg" xmlns:xlink="http://www.w3.org/1999/xlink" x="0px" y="0px"
	 viewBox="0 0 48 48" style="enable-background:new 0 0 48 48;" xml:space="preserve">
<g>
	<polygon points="38.7,0 25.6,0 25.6,19.1 47.9,19.1 	"/>
	<polygon points="22.4,0 9.3,0 0.1,19.1 22.4,19.1 	"/>
	<path d="M0.1,48h47.8V22.5H0.1V48z M19,45.5h-2v-4.1h2V45.5z M25.1,45.5H21v-4.1h4.1V45.5z M19,25.1v4.1h10.2
		c4.5,0,8.2,3.7,8.2,8.2s-3.7,8.2-8.2,8.2h-2v-4.1h2c2.3,0,4.1-1.8,4.1-4.1c0-2.3-1.8-4.1-4.1-4.1H19v4.1l-8.3-6.1L19,25.1z"/>
</g>
</svg>
