<?xml version="1.0" encoding="utf-8"?>
<!-- Generator: Adobe Illustrator 21.0.0, SVG Export Plug-In . SVG Version: 6.00 Build 0)  -->
<svg version="1.1" id="图层_1" xmlns="http://www.w3.org/2000/svg" xmlns:xlink="http://www.w3.org/1999/xlink" x="0px" y="0px"
	 viewBox="0 0 200 200" style="enable-background:new 0 0 200 200;" xml:space="preserve">
<style type="text/css">
	.st0{fill:#4F4F4F;}
</style>
<path class="st0" d="M144.9,129c-10.4,0-18.9,8.5-18.9,18.9s8.5,18.9,18.9,18.9c10.4,0,18.9-8.5,18.9-18.9S155.4,129,144.9,129
	L144.9,129z M144.9,157.1c-5.1,0-9.2-4.1-9.2-9.2c0.2-5.1,4.5-9,9.6-8.8c4.8,0.2,8.6,4,8.8,8.8C154.1,152.9,150,157.1,144.9,157.1z
	 M195,138c-0.7-3.8-3.1-6.2-6.2-6.2h-0.4c-5.9,0-10.7-4.8-10.7-10.7c0-1.5,0.7-3.4,0.9-4c1.5-3.3,0.3-7.3-2.9-9.6l-12.5-6.9
	c-3.1-1.3-6.7-0.6-9.2,1.8c-1.6,1.6-5.7,4.9-8.5,4.9c-2.9,0-7.1-3.4-8.6-5c-2.4-2.4-6-3.2-9.1-1.9l-0.2,0.1l-12.7,7l-0.3,0.2
	c-3,2.1-4.1,6-2.6,9.4c0.1,0.2,1,2.3,1,4.1c0,5.9-4.8,10.7-10.7,10.7h-0.5c-3,0-5.4,2.4-6.1,6.2c-0.1,0.6-1.1,5.8-1.1,9.9
	c0,4.2,0.9,9.4,1.1,9.9c0.7,3.7,3.1,6.2,6.2,6.2h0.4c5.9,0,10.7,4.8,10.7,10.7c0,1.5-0.7,3.4-0.9,4c-1.5,3.3-0.3,7.3,2.9,9.6
	l12.3,6.8c3.2,1.3,6.8,0.6,9.2-1.9c1.5-1.6,5.8-5.2,8.7-5.2c3,0,7.2,3.6,8.8,5.3c1.5,1.6,3.8,2.6,6.1,2.6c1.2,0,2.3-0.3,3.4-0.8
	l12.4-6.8l0.3-0.2c3-2.1,4.1-6,2.6-9.3c-0.5-1.3-0.9-2.7-0.9-4.1c0-5.9,4.8-10.7,10.7-10.7h0.5c3,0,5.4-2.4,6.1-6.2c0,0,1-5.5,1-9.9
	C196,143.8,195.1,138.6,195,138L195,138z M185.6,154.5c-10.2,1.3-17.8,10-17.8,20.3c0,2.4,0.6,4.6,1.1,6.2l-9,4.9
	c-0.8-0.8-2.1-2-3.7-3.1c-4-2.9-7.8-4.4-11.4-4.4c-3.6,0-7.4,1.5-11.3,4.3c-1.3,1-2.5,2-3.7,3.1l-8.6-4.8c0.5-1.5,1.1-3.8,1.1-6.2
	c0-10.3-7.6-18.9-17.8-20.3c-0.4-2.2-0.6-4.3-0.6-6.5c0-2.2,0.4-4.9,0.6-6.5c10.2-1.3,17.8-10,17.8-20.3c0-2.4-0.6-4.6-1.1-6.2
	l9.3-5.1c0.8,0.8,2.1,1.9,3.7,3c3.9,2.8,7.6,4.2,11.1,4.2c3.5,0,7.2-1.4,11-4.1c1.6-1.1,2.8-2.2,3.6-3l8.9,4.9
	c-0.7,2-1.1,4.1-1.1,6.2c0,10.3,7.7,18.9,17.8,20.3c0.3,1.7,0.6,4.4,0.6,6.5C186.3,150.1,185.9,152.8,185.6,154.5L185.6,154.5z
	 M16.6,182.2v-10.7c0-36.4,28.1-66.4,63.9-69.8l0,0h0.1c2.2-0.2,4.4-0.3,6.7-0.3l1,0c7.9-0.6,19.9-2.5,26.1-8l3.1-2.4
	c12-9.3,18.8-23.3,18.8-38.3c0-26.8-22-48.7-49.1-48.7C60.2,4,38.2,25.8,38.2,52.7c0,15,6.9,28.9,18.8,38.3l3.1,2.4l-3.6,1.4
	C24.6,107.4,4,137.5,4,171.5v17c0,3.4,2.8,6.2,6.3,6.2h92.4c-3-3.9-5.6-8.1-7.6-12.5H16.6z M50.8,52.7c0-19.9,16.3-36.2,36.4-36.2
	c20.1,0,36.4,16.2,36.4,36.2s-16.3,36.2-36.4,36.2C67.2,88.8,50.8,72.6,50.8,52.7z"/>
</svg>
