<?xml version="1.0" encoding="utf-8"?>
<!-- Generator: Adobe Illustrator 21.0.0, SVG Export Plug-In . SVG Version: 6.00 Build 0)  -->
<svg version="1.1" id="图层_1" xmlns="http://www.w3.org/2000/svg" xmlns:xlink="http://www.w3.org/1999/xlink" x="0px" y="0px"
	 viewBox="0 0 200 200" style="enable-background:new 0 0 200 200;" xml:space="preserve">
<path d="M63.8,121.7c0,4.6,3.7,8.2,8.2,8.2s8.2-3.7,8.2-8.2c0-4.6-3.7-8.2-8.2-8.2S63.8,117.2,63.8,121.7L63.8,121.7z M173.2,112.3
	c14.2-3.7,24.7-16.5,24.7-31.8c-0.3-18.2-15.3-32.7-33.5-32.4c-17.8,0.3-32.1,14.6-32.4,32.4c0,15.3,11.5,28.1,25.7,31.8l-1,75.3
	l16.5-16.5v-8.2h16.5v-8.2h-16.5v-16.5h16.5V130h-16.5L173.2,112.3L173.2,112.3z M164.9,97c-9.1,0-16.5-7.4-16.5-16.5
	S155.8,64,164.9,64c9.1,0,16.5,7.4,16.5,16.5C181.4,89.6,174,97,164.9,97z M30.8,80.5C30.8,80.5,30.8,80.5,30.8,80.5
	c8.2,14,21.8,24.7,37.1,24.7c15.3,0,28.9-10.7,37-24.7c0,0,0,0,0,0c4.6,0,16.5-11.9,16.5-16.5c0-4.6-3.7-8.2-8.2-8.2
	c-0.1,0-0.1,0-0.2,0c0.1-1.4,0.2-2.8,0.2-4.2c0-25-20.3-45.3-45.3-45.3c-25,0-45.3,20.3-45.3,45.3c0,1.4,0.1,2.8,0.2,4.2
	c-0.1,0-0.1,0-0.2,0c-4.6,0-8.2,3.7-8.2,8.2C14.3,68.6,26.3,80.5,30.8,80.5z M95.3,119.3l-15,60.1h-5.9l5.9-41.2H63.8l5.9,41.2h-5.9
	l-15-60.1c-21.9,10.1-42.7,31.8-42.7,51.8c0,27.3,38.6,24.7,65.9,24.7c27.3,0,65.9,2.6,65.9-24.7C138,151.1,117.2,129.5,95.3,119.3
	L95.3,119.3z"/>
</svg>
