<?xml version="1.0" encoding="utf-8"?>
<!-- Generator: Adobe Illustrator 21.0.0, SVG Export Plug-In . SVG Version: 6.00 Build 0)  -->
<svg version="1.1" id="图层_1" xmlns="http://www.w3.org/2000/svg" xmlns:xlink="http://www.w3.org/1999/xlink" x="0px" y="0px"
	 viewBox="0 0 35 43" style="enable-background:new 0 0 35 43;" xml:space="preserve">
<path d="M34.4,28.3c0.2,0.4,0.4,0.9,0.4,1.4v10.2c0,0.8-0.3,1.5-0.9,2.1c-0.6,0.6-1.2,0.8-2.1,0.9H17.2c-0.8,0-1.5-0.3-2.1-0.9
	c-0.6-0.6-0.8-1.2-0.9-2.1V29.7c0-0.5,0.1-1,0.4-1.4s0.6-0.8,1.1-1.1l7.4-4.6c0.5-0.3,1-0.4,1.5-0.4c0.6,0,1.1,0.1,1.5,0.4l7.4,4.6
	C33.9,27.5,34.2,27.9,34.4,28.3z M28.5,33.6c0.3-0.3,0.4-0.6,0.4-1.1c0-0.4-0.1-0.8-0.4-1.1c-0.3-0.3-0.6-0.4-1.1-0.4h-5.9
	c-0.5,0-0.8,0.1-1.1,0.4c-0.3,0.3-0.4,0.6-0.4,1.1c0,0.4,0.1,0.8,0.4,1.1c0.3,0.3,0.6,0.4,1.1,0.4h5.9C27.9,34,28.3,33.9,28.5,33.6z
	 M28.5,39.5c0.3-0.3,0.4-0.6,0.4-1.1c0-0.4-0.1-0.8-0.4-1.1c-0.3-0.3-0.6-0.4-1.1-0.4h-5.9c-0.5,0-0.8,0.2-1.1,0.4
	c-0.3,0.3-0.4,0.6-0.4,1.1c0,0.4,0.1,0.8,0.4,1.1c0.3,0.3,0.6,0.4,1.1,0.4h5.9C27.9,39.9,28.3,39.7,28.5,39.5z"/>
<path d="M12,41c-0.1-0.3,0.8-0.6,0.8-1V28.4c0-0.6,0.2-1.1,0.5-1.6c0.3-0.5,0.7-0.9,1.2-1.2l8.4-5.2c0.5-0.3,1.1-0.5,1.8-0.5
	c0.6,0,1.2,0.2,1.8,0.5l7.4,4.6V3.5c0-1.7-1.4-3.1-3.1-3.1c0,0,0,0,0,0H3.3c-1.7,0-3.1,1.4-3.1,3.1v32.6h2.4 M22.3,11v0.2
	c0,0.5-0.4,0.9-0.9,0.9H10c-0.5,0-0.9-0.4-0.9-0.9V11c0-0.5,0.4-0.9,0.9-0.9c0,0,0,0,0,0h11.3C21.9,10.1,22.3,10.5,22.3,11
	C22.3,11,22.3,11,22.3,11z M3.9,5.8c0-0.5,0.4-0.9,0.9-0.9h16.6c0.5,0,0.9,0.4,0.9,0.9c0,0,0,0,0,0V6c0,0.5-0.4,0.9-0.9,0.9
	c0,0,0,0,0,0H4.8C4.3,6.9,3.9,6.5,3.9,6V5.8z M3.9,17.4C3.9,17.4,3.9,17.4,3.9,17.4v-0.2c0-0.5,0.4-0.9,0.9-0.9c0,0,0,0,0,0h16.6
	c0.5,0,0.9,0.4,0.9,0.9v0.2c0,0.5-0.4,0.9-0.9,0.9H4.8C4.3,18.3,3.9,17.9,3.9,17.4z"/>
<path d="M12.8,41.4H4.2c-2.2,0-4-1.8-4-4v-5.2c0-2.2,1.8-4,4-4h5.3c2.2,0,3.3,1.8,3.3,4v5.2"/>
</svg>
