<?xml version="1.0" encoding="utf-8"?>
<!-- Generator: Adobe Illustrator 21.0.0, SVG Export Plug-In . SVG Version: 6.00 Build 0)  -->
<svg version="1.1" id="图层_1" xmlns="http://www.w3.org/2000/svg" xmlns:xlink="http://www.w3.org/1999/xlink" x="0px" y="0px"
	 viewBox="0 0 38 38.2" style="enable-background:new 0 0 38 38.2;" xml:space="preserve">
<path d="M35.6,11.3l-4.5-9.1H6.8l-4.5,9.1l-2.1-0.8l4.5-9.2c0.2-0.6,0.8-1.1,1.7-1.1h25.2c0.8,0,1.5,0.5,1.7,1.1l4.5,9.2
	C37.8,10.4,35.6,11.3,35.6,11.3z"/>
<path d="M20.3,10.3H1.6l4.3-9.8h14.3V10.3z"/>
<g>
	<rect x="14.5" y="20.8" width="1.8" height="8.9"/>
	<rect x="21.6" y="20.8" width="1.8" height="8.9"/>
	<path d="M34.9,8.3H3c-1.9,0-2.8,1-2.8,3v23.3c0,2,1.6,3.6,3.5,3.6h30.7c1.9,0,3.5-1.6,3.5-3.6V11.3C37.7,9.3,36.8,8.3,34.9,8.3z
		 M26.9,33.3H11v-16h15.9V33.3z M28.8,15.5H9.1v-1.8h7.1v-1.8h5.4v1.8h7.3V15.5z"/>
	<rect x="18.1" y="20.8" width="1.8" height="8.9"/>
</g>
</svg>
