<?xml version="1.0" encoding="utf-8"?>
<!-- Generator: Adobe Illustrator 21.0.0, SVG Export Plug-In . SVG Version: 6.00 Build 0)  -->
<svg version="1.1" id="图层_1" xmlns="http://www.w3.org/2000/svg" xmlns:xlink="http://www.w3.org/1999/xlink" x="0px" y="0px"
	 viewBox="0 0 48 45.1" style="enable-background:new 0 0 48 45.1;" xml:space="preserve">
<path d="M24,29.5c3.9,0,7-3.1,7-7c0-3.8-3.1-7-7-7c-3.9,0-7,3.1-7,7C17,26.4,20.2,29.5,24,29.5z M24,33c-5.8,0-10.5-4.7-10.5-10.5
	C13.5,16.7,18.2,12,24,12c5.8,0,10.5,4.7,10.5,10.5C34.5,28.3,29.8,33,24,33z"/>
<path d="M36.7,37.9c-0.5-2.5-0.5-5.5,0.7-7.6c1.2-2.1,3.8-3.6,6.3-4.5c0.1-0.8,0.2-1.6,0.3-2.3c0-0.4,0-0.7,0-1c0-0.3,0-0.6,0-1
	c-0.1-0.8-0.1-1.6-0.3-2.3c-2.5-0.9-5.1-2.3-6.3-4.5c-1.2-2.1-1.2-5-0.7-7.6l-5.8-3.4C29,5.5,26.4,7,24,7c-2.4,0-4.9-1.4-6.9-3.1
	l-5.8,3.3c0.5,2.5,0.5,5.5-0.7,7.6c-1.2,2.1-3.8,3.6-6.3,4.5C4.1,20,4,20.8,4,21.6c0,0.3,0,0.6,0,1c0,0.3,0,0.6,0,1
	C4,24.3,4.1,25,4.2,25.8c2.5,0.9,5.1,2.3,6.3,4.5c1.2,2.1,1.2,5,0.7,7.6l5.8,3.4c2-1.7,4.5-3.2,6.9-3.2c2.4,0,4.9,1.4,6.9,3.1
	L36.7,37.9L36.7,37.9z M30.9,44.8c-0.7,0-1.4-0.2-1.9-0.7c-0.7-0.7-3.2-2.6-5-2.6c-1.8,0-4.3,1.9-5,2.6c-0.8,0.7-1.9,0.9-2.9,0.5
	l-0.1-0.1l-7.1-4.1c-0.8-0.7-1.2-1.7-1-2.8c0.2-1,0.6-4.1-0.2-5.6c-0.9-1.5-3.8-2.7-4.7-3c-1-0.3-1.7-1.2-1.9-2.2
	c0-0.1-0.4-2.5-0.4-4.3s0.4-4.2,0.4-4.3c0.2-1,0.9-1.9,1.9-2.2c0.9-0.3,3.9-1.5,4.7-3C8.4,11.5,8,8.4,7.8,7.4C7.5,6.3,8,5.3,8.8,4.6
	l0.1-0.1l7.1-4.1c1-0.4,2.1-0.2,2.9,0.5c0.7,0.7,3.2,2.6,5,2.6c1.8,0,4.3-1.9,5-2.6c0.8-0.7,1.9-0.9,2.9-0.5l0.1,0.1l7.1,4.1
	c0.8,0.7,1.2,1.7,1,2.8c-0.2,1-0.6,4.1,0.2,5.6c0.9,1.5,3.8,2.7,4.7,3c1,0.3,1.7,1.2,1.9,2.2c0,0.1,0.4,2.5,0.4,4.3
	c0,1.8-0.4,4.2-0.4,4.3c-0.2,1-0.9,1.9-1.9,2.2c-0.9,0.3-3.9,1.5-4.7,3c-0.9,1.5-0.5,4.6-0.2,5.6c0.2,1.1-0.2,2.1-1,2.8l-0.1,0.1
	l-7.1,4.1C31.6,44.8,31.2,44.8,30.9,44.8z"/>
</svg>
