<?xml version="1.0" encoding="utf-8"?>
<!-- Generator: Adobe Illustrator 21.0.0, SVG Export Plug-In . SVG Version: 6.00 Build 0)  -->
<svg version="1.1" id="图层_1" xmlns="http://www.w3.org/2000/svg" xmlns:xlink="http://www.w3.org/1999/xlink" x="0px" y="0px"
	 viewBox="0 0 200 200" style="enable-background:new 0 0 200 200;" xml:space="preserve">
<style type="text/css">
	.st0{fill:#4F4F4F;}
</style>
<path class="st0" d="M59.4,168.9l-8.9,8.9c-3.9,3.9-10.2,3.9-14.1,0l-14.1-14.1c-3.9-3.9-3.9-10.2,0-14.1l8.9-8.9
	c-3.8-6.4-6.7-13.4-8.6-20.6H10c-5.5,0-10-4.5-10-10c0,0,0,0,0,0V90c0-5.5,4.5-10,10-10c0,0,0,0,0,0h12.5c1.9-7.3,4.8-14.3,8.6-20.6
	l-8.9-8.9c-3.9-3.9-3.9-10.2,0-14.1l14.1-14.1c3.9-3.9,10.2-3.9,14.1,0l8.9,8.9c6.4-3.8,13.4-6.7,20.6-8.6V10c0-5.5,4.5-10,10-10
	c0,0,0,0,0,0h20c5.5,0,10,4.5,10,10c0,0,0,0,0,0v12.5c7.3,1.9,14.3,4.8,20.6,8.6l8.9-8.9c3.9-3.9,10.2-3.9,14.1,0l14.1,14.1
	c3.9,3.9,3.9,10.2,0,14.1l-8.9,8.9c3.8,6.4,6.7,13.3,8.6,20.6H190c5.5,0,10,4.5,10,10l0,0v20c0,5.5-4.5,10-10,10l0,0h-12.5
	c-1.9,7.2-4.7,14.2-8.6,20.6l8.9,8.9c3.9,3.9,3.9,10.2,0,14.1l-14.1,14.1c-3.9,3.9-10.2,3.9-14.1,0l-8.9-8.9
	c-6.4,3.8-13.4,6.7-20.6,8.6V190c0,5.5-4.5,10-10,10l0,0H90c-5.5,0-10-4.5-10-10l0,0v-12.5C72.8,175.6,65.8,172.7,59.4,168.9
	L59.4,168.9z M100,140c22.1,0,40-17.9,40-40c0-22.1-17.9-40-40-40c0,0,0,0,0,0c-22.1,0-40,17.9-40,40C60,122.1,77.9,140,100,140z"/>
</svg>
