<?xml version="1.0" standalone="no"?><!DOCTYPE svg PUBLIC "-//W3C//DTD SVG 1.1//EN" "http://www.w3.org/Graphics/SVG/1.1/DTD/svg11.dtd"><svg t="1565253008593" class="icon" viewBox="0 0 1024 1024" version="1.1" xmlns="http://www.w3.org/2000/svg" p-id="23648" xmlns:xlink="http://www.w3.org/1999/xlink" width="200" height="200"><defs><style type="text/css"></style></defs><path d="M984.615385 433.230769v472.615385a118.153846 118.153846 0 0 1-118.153847 118.153846H157.538462a118.153846 118.153846 0 0 1-118.153847-118.153846V118.153846a118.153846 118.153846 0 0 1 118.153847-118.153846h475.096615l347.136 354.461538H984.615385v78.769231z m-78.769231 0h-196.923077a157.538462 157.538462 0 0 1-157.538462-157.538461V78.769231H157.538462a39.384615 39.384615 0 0 0-39.384616 39.384615v787.692308a39.384615 39.384615 0 0 0 39.384616 39.384615h708.923076a39.384615 39.384615 0 0 0 39.384616-39.384615V433.230769z m-275.692308-323.190154V275.692308a78.769231 78.769231 0 0 0 78.769231 78.76923h160.610461L630.153846 110.040615zM315.076923 590.769231h393.846154a39.384615 39.384615 0 0 1 0 78.769231H315.076923a39.384615 39.384615 0 1 1 0-78.769231z m0 157.538461h393.846154a39.384615 39.384615 0 0 1 0 78.769231H315.076923a39.384615 39.384615 0 1 1 0-78.769231z" p-id="23649"></path></svg>