<?xml version="1.0" encoding="utf-8"?>
<!-- Generator: Adobe Illustrator 21.0.0, SVG Export Plug-In . SVG Version: 6.00 Build 0)  -->
<svg version="1.1" id="图层_1" xmlns="http://www.w3.org/2000/svg" xmlns:xlink="http://www.w3.org/1999/xlink" x="0px" y="0px"
	 viewBox="0 0 200 200" style="enable-background:new 0 0 200 200;" xml:space="preserve">
<style type="text/css">
	.st0{fill:#4F4F4F;}
</style>
<path class="st0" d="M68.6,92.9H15.3C8,92.9,2,86.9,2,79.6V26.3C2,19,8,13.1,15.3,13.1h53.4C76,13.1,82,19,82,26.3v53.4
	C81.9,87.1,76,92.9,68.6,92.9z M15.3,26.3v53.4h53.4V26.3H15.3z M147,104c-3.5,0-6.9-1.3-9.4-3.9L99.9,62.4C97.3,59.8,96,56.5,96,53
	c0-3.5,1.3-6.9,3.9-9.4l37.7-37.7c2.5-2.5,5.9-3.9,9.4-3.9s6.9,1.3,9.4,3.9l37.7,37.7c2.5,2.5,3.9,5.9,3.9,9.4
	c0,3.5-1.3,6.9-3.9,9.4l-37.7,37.7C153.9,102.7,150.5,104,147,104L147,104z M147,15.2l-37.7,37.7L147,90.6l37.7-37.7
	C184.7,52.9,147,15.2,147,15.2z M68.6,198H15.3C8,198,2,192,2,184.7v-53.4C2,124,8,118,15.3,118h53.4c7.3,0,13.3,6,13.3,13.3v53.4
	C81.9,192.1,76,198,68.6,198z M15.3,131.4v53.4h53.4v-53.4H15.3z M173.7,198h-53.4c-7.3,0-13.3-6-13.3-13.3v-53.4
	c0-7.3,6-13.3,13.3-13.3h53.4c7.3,0,13.3,6,13.3,13.3v53.4C186.9,192.1,181.1,198,173.7,198z M120.4,131.4v53.4h53.4v-53.4H120.4z"
	/>
</svg>
