<?xml version="1.0" standalone="no"?><!DOCTYPE svg PUBLIC "-//W3C//DTD SVG 1.1//EN" "http://www.w3.org/Graphics/SVG/1.1/DTD/svg11.dtd"><svg t="1572424977086" class="icon" viewBox="0 0 1024 1024" version="1.1" xmlns="http://www.w3.org/2000/svg" p-id="21671" xmlns:xlink="http://www.w3.org/1999/xlink" width="200" height="200"><defs><style type="text/css"></style></defs><path d="M780.8 179.2h-96V134.4c0-33.6-27.2-60.8-60.8-60.8H400c-33.6 0-60.8 27.2-60.8 60.8v44.8h-96c-40 0-72 32-72 72v636.8c0 40 32 72 72 72h537.6c40 0 72-32 72-72V251.2c0-40-32-72-72-72zM387.2 134.4c0-6.4 6.4-12.8 12.8-12.8h225.6c6.4 0 12.8 6.4 12.8 12.8v35.2c0 4.8-4.8 9.6-9.6 9.6H396.8c-4.8 0-9.6-4.8-9.6-9.6V134.4z m417.6 753.6c0 12.8-11.2 24-24 24H243.2c-12.8 0-24-11.2-24-24V251.2c0-12.8 11.2-24 24-24h537.6c12.8 0 24 11.2 24 24v636.8z" fill="#ffffff" p-id="21672"></path><path d="M420.8 315.2h182.4c11.2 0 20.8-9.6 20.8-20.8 0-11.2-9.6-20.8-20.8-20.8H420.8c-11.2 0-20.8 9.6-20.8 20.8 0 11.2 9.6 20.8 20.8 20.8zM612.8 572.8c19.2-27.2 28.8-60.8 22.4-97.6-9.6-49.6-49.6-88-97.6-97.6-80-16-148.8 44.8-148.8 123.2 0 27.2 9.6 52.8 24 73.6-68.8 36.8-112 108.8-112 187.2V784c0 11.2 9.6 20.8 20.8 20.8h384c11.2 0 20.8-9.6 20.8-20.8v-24c-1.6-78.4-44.8-150.4-113.6-187.2z m-81.6-155.2c30.4 6.4 56 32 62.4 62.4 12.8 60.8-40 113.6-100.8 100.8-30.4-6.4-56-32-62.4-62.4-12.8-60.8 40-113.6 100.8-100.8z m152 345.6H340.8v-3.2c0-67.2 40-129.6 102.4-156.8 19.2 12.8 43.2 20.8 68.8 20.8 25.6 0 49.6-8 68.8-20.8 62.4 27.2 102.4 89.6 102.4 156.8v3.2z" fill="#ffffff" p-id="21673"></path></svg>