<?xml version="1.0" encoding="utf-8"?>
<!-- Generator: Adobe Illustrator 21.0.0, SVG Export Plug-In . SVG Version: 6.00 Build 0)  -->
<svg version="1.1" id="图层_1" xmlns="http://www.w3.org/2000/svg" xmlns:xlink="http://www.w3.org/1999/xlink" x="0px" y="0px"
	 viewBox="0 0 41.6 32.8" style="enable-background:new 0 0 41.6 32.8;" xml:space="preserve">
<path d="M36.1,0.5H5.6c-2.9,0-5.3,2.4-5.3,5.3v21.5c0,2.9,2.4,5.3,5.3,5.3h30.5c2.9,0,5.3-2.4,5.3-5.3V5.8C41.4,2.8,39,0.5,36.1,0.5
	z M24.8,11.4h9.6c0.5,0,0.9,0.4,0.9,1s-0.4,1-0.9,1h-9.6c-0.5,0-0.9-0.4-0.9-1S24.3,11.4,24.8,11.4z M24.8,15.6h10.9
	c0.5,0,0.9,0.4,0.9,1c0,0.5-0.4,1-0.9,1H24.8c-0.5,0-0.9-0.4-0.9-1C24,16,24.3,15.6,24.8,15.6z M21.4,25.9c-0.1-4.5-3.8-8.2-8.4-8.2
	c-3.9,0-7.2,2.7-8.1,6.4h8.1v1.8h-10c0.1-4.6,3.2-8.4,7.5-9.5c-1.7-0.9-3-2.7-3-4.9c0-3,2.5-5.5,5.5-5.5s5.5,2.5,5.5,5.5
	c0,2.1-1.2,4-3,4.9c4.2,1.1,7.4,4.9,7.5,9.5L21.4,25.9L21.4,25.9z M37.5,21.7H24.8c-0.5,0-0.9-0.4-0.9-1s0.4-1,0.9-1h12.6
	c0.5,0,0.9,0.4,0.9,1S38,21.7,37.5,21.7z"/>
<path d="M9.2,13.2c0.9,2.1,3.3,3.2,5.5,2.3s3.2-3.3,2.3-5.5c0,0,0,0,0,0c-0.9-2.1-3.3-3.2-5.5-2.3C9.3,8.6,8.3,11,9.2,13.2
	C9.2,13.2,9.2,13.2,9.2,13.2z"/>
</svg>
