<?xml version="1.0" encoding="utf-8"?>
<!-- Generator: Adobe Illustrator 21.0.0, SVG Export Plug-In . SVG Version: 6.00 Build 0)  -->
<svg version="1.1" id="图层_1" xmlns="http://www.w3.org/2000/svg" xmlns:xlink="http://www.w3.org/1999/xlink" x="0px" y="0px"
	 viewBox="0 0 200 200" style="enable-background:new 0 0 200 200;" xml:space="preserve">
<style type="text/css">
	.st0{fill:#4F4F4F;}
</style>
<path class="st0" d="M193.6,94.4c0-52-42.3-94.4-94.4-94.4S4.8,42.3,4.8,94.4c0,24.9,9.8,47.5,25.5,64.4v41.1l21.4,0.1l22.5-0.1
	l0-14.5c8,2.2,16.3,3.5,24.9,3.5c8.5,0,16.7-1.2,24.6-3.4l0,14.5l22.5,0.1l21.4-0.1l0-40.7C183.7,142.2,193.6,119.5,193.6,94.4z
	 M63.4,188.5H40.9v-20c6.8,5.4,14.4,9.9,22.6,13.2V188.5z M15.9,94.4c0-45.9,37.4-83.3,83.3-83.3s83.3,37.4,83.3,83.3
	c0,45.9-37.4,83.3-83.3,83.3S15.9,140.3,15.9,94.4z M134.6,188.5v-6.7c8.2-3.3,15.7-7.8,22.6-13.1v19.8H134.6z M76.2,41.2
	c-3.6-0.7-8.1-2.3-12.2-4.3c-1,6.6-4,18.4-7,25.7c-4.4,10.6-13.6,25-19.4,31.6c3.4,2.3,7,2.5,8.7,5.3c4-5.7,6.9-10,10.7-17.3v39.9
	c0,8.8-0.6,19.2-1.3,26.2h11l0-86.6c3.8-7.7,8.3-15.3,9.7-16.8C78.9,42.3,78.8,41.6,76.2,41.2z M107.6,119.5
	c-3.8-1.2-7.2-2.8-10.8-4.6c-3.9,7.8-16.2,22.3-25.3,27.9c5.1,1.3,9.4,4,10.5,6.3c19.3-21.7,23.1-25.3,24.9-26.2
	C110.6,121.3,110.4,120.4,107.6,119.5z M129.7,73.8c7.2,0.1,13,0.6,17.9,1.1V64.2c-5,0.5-10.7,1-17.9,1.1v-18c0-4,0.5-6.3,1.7-7.1
	c1.7-1,1.6-1.9-0.5-1.9c-4.5,0-7.3-0.1-11-0.7c0.4,2.7,0.5,8.5,0.5,19v8.8H103V47.4c0-4,0.5-6.3,1.7-7.1c1.7-1,1.6-1.9-0.5-1.9
	c-4.5,0.1-7.4-0.1-11.1-0.7c0.4,2.8,0.5,6.2,0.5,19v8.6c-5.8-0.2-10.8-0.6-15.9-1.1v10.7c5.1-0.5,10-0.9,15.9-1v27.3
	c-7.5-0.1-13.5-0.5-18.9-1.1v11.1c9-0.9,21.7-1.2,38.3-1.2s29.4,0.4,38.4,1.2v-11.1c-6.3,0.7-12.8,1.1-21.9,1.1V73.8z M120.4,101.2
	H103l0-27.4h17.4L120.4,101.2z M127.5,115.6l-8.3,6.2c7,6.3,16.4,17.8,21.8,25.7l9.7-8.3C142.7,129.9,136.5,123.8,127.5,115.6z"/>
</svg>
