<?xml version="1.0" encoding="utf-8"?>
<!-- Generator: Adobe Illustrator 21.0.0, SVG Export Plug-In . SVG Version: 6.00 Build 0)  -->
<svg version="1.1" id="图层_1" xmlns="http://www.w3.org/2000/svg" xmlns:xlink="http://www.w3.org/1999/xlink" x="0px" y="0px"
	 viewBox="0 0 48 48" style="enable-background:new 0 0 48 48;" xml:space="preserve">
<path d="M37.4,26.2H26.2v11.2c0,5.5,4.5,10,10,10h1.1c5.5,0,10-4.5,10-10v0v-1.1C47.4,30.7,42.9,26.2,37.4,26.2z M10.6,26.2
	c-5.5,0-10,4.5-10,10v1.1c0,5.5,4.5,10,10,10c0,0,0,0,0,0h1.1c5.5,0,10-4.5,10-10V26.2H10.6z M11.7,0.6h-1.1c-5.5,0-10,4.5-10,10
	v1.1c0,5.5,4.5,10,10,10h11.2V10.6C21.8,5.1,17.3,0.6,11.7,0.6z"/>
<path d="M37.4,3.8c3.7,0,6.8,3,6.8,6.8v1.1c0,3.7-3,6.8-6.7,6.8c0,0,0,0,0,0h-7.9v-7.9c0-3.7,3-6.8,6.8-6.8L37.4,3.8 M37.4,0.6h-1.1
	c-5.5,0-10,4.5-10,10v11.2h11.2c5.5,0,10-4.5,10-10v-1.1C47.4,5.1,42.9,0.6,37.4,0.6C37.4,0.6,37.4,0.6,37.4,0.6L37.4,0.6z"/>
</svg>
