<?xml version="1.0" encoding="utf-8"?>
<!-- Generator: Adobe Illustrator 21.0.0, SVG Export Plug-In . SVG Version: 6.00 Build 0)  -->
<svg version="1.1" id="图层_1" xmlns="http://www.w3.org/2000/svg" xmlns:xlink="http://www.w3.org/1999/xlink" x="0px" y="0px"
	 viewBox="0 0 48 48" style="enable-background:new 0 0 48 48;" xml:space="preserve">
<path d="M3.1,22.2c-0.2,0.2-0.5,0.6-0.5,1.1c0,0.4,0.1,0.7,0.5,1.1l7.4,7.7c0.2,0.1,0.6,0.4,1.1,0.4c0.4,0,0.8-0.1,1.1-0.5l7.8-7.7
	c0.2-0.2,0.5-0.6,0.5-1.1s-0.1-0.8-0.5-1.1l-7.8-7.6c-0.2-0.2-0.6-0.5-1.1-0.5c-0.4,0-0.7,0.1-1.1,0.5C10.6,14.5,3.1,22.2,3.1,22.2z
	 M45.4,3.8c0-0.4-0.1-0.7-0.5-1.1c-0.2-0.2-0.7-0.5-1.1-0.5H31.9c-0.4,0-0.7,0.1-1.1,0.5c-0.2,0.2-0.5,0.7-0.5,1.1v3h-6.7
	c-0.4,0-0.7,0.1-1.1,0.5c-0.2,0.2-0.5,0.7-0.5,1.1v30c0,0.4,0.1,0.7,0.5,1.1c0.2,0.2,0.7,0.5,1.1,0.5h6.7v4.4c0,0.4,0.1,0.7,0.5,1.1
	c0.2,0.2,0.7,0.5,1.1,0.5h11.9c0.4,0,0.7-0.1,1.1-0.5c0.2-0.2,0.5-0.7,0.5-1.1v-9.7c0-0.4-0.1-0.7-0.5-1.1c-0.2-0.2-0.7-0.5-1.1-0.5
	H31.9c-0.4,0-0.7,0.1-1.1,0.5c-0.2,0.2-0.5,0.7-0.5,1.1v0.7h-3c-0.4,0-0.7-0.1-1.1-0.5c-0.2-0.2-0.5-0.7-0.5-1.1V12
	c0-0.4,0.1-0.7,0.5-1.1c0.2-0.2,0.7-0.5,1.1-0.5h3v3c0,0.4,0.1,0.7,0.5,1.1c0.2,0.2,0.7,0.5,1.1,0.5h11.9c0.4,0,0.7-0.1,1.1-0.5
	c0.2-0.2,0.5-0.7,0.5-1.1C45.4,13.4,45.4,3.8,45.4,3.8z"/>
</svg>
