<?xml version="1.0" standalone="no"?><!DOCTYPE svg PUBLIC "-//W3C//DTD SVG 1.1//EN" "http://www.w3.org/Graphics/SVG/1.1/DTD/svg11.dtd"><svg t="1565253504522" class="icon" viewBox="0 0 1024 1024" version="1.1" xmlns="http://www.w3.org/2000/svg" p-id="24513" xmlns:xlink="http://www.w3.org/1999/xlink" width="200" height="200"><defs><style type="text/css"></style></defs><path d="M977.355076 560.097671c-25.598614 0-46.589477 19.454947-46.589477 43.517643l-6.143667 336.365786H93.690927V83.451481h373.227789c24.574669 0 44.541588-18.431002 44.541588-41.469754C511.460304 18.431002 491.493386 0 466.918716 0H33.278198C24.574669 0 15.871141 3.071834 9.727473 7.679584 3.583806 12.799307 0 19.966919 0 27.134531v970.187464c0 7.167612 3.583806 14.335224 9.727473 18.942974 6.143667 5.119723 14.847196 8.191556 23.550725 7.679584h951.24449c8.703529 0 16.895085-3.071834 23.038753-7.679584 6.143667-5.119723 9.727473-11.775362 9.727473-18.942974L1023.944553 604.127287c0-24.574669-20.990863-44.029616-46.589477-44.029616zM320.494645 453.095465c-11.26339-12.799307-30.718337-13.823251-43.517643-2.559862s-13.823251 30.718337-2.559862 43.517644L471.014495 716.761187c5.631695 6.65564 14.335224 10.239446 23.038752 10.239446h1.023945c9.215501 0 17.407057-4.60775 23.038752-11.775362l376.299623-478.182107c10.239446-13.311279 8.191556-32.766226-5.119722-43.005671s-32.766226-8.191556-43.005672 5.119723l-353.260871 449.511659-172.534657-195.57341z" p-id="24514"></path></svg>