<?xml version="1.0" encoding="utf-8"?>
<!-- Generator: Adobe Illustrator 21.0.0, SVG Export Plug-In . SVG Version: 6.00 Build 0)  -->
<svg version="1.1" id="图层_1" xmlns="http://www.w3.org/2000/svg" xmlns:xlink="http://www.w3.org/1999/xlink" x="0px" y="0px"
	 viewBox="0 0 39.5 39.2" style="enable-background:new 0 0 39.5 39.2;" xml:space="preserve">
<path d="M38.8,13.5l-18.2-13c-0.5-0.4-1.2-0.4-1.7,0l-18.3,13C0,13.9,0.3,14.9,1,14.9h3.7v23.3C4.7,38.6,5,39,5.5,39H34
	c0.4,0,0.8-0.3,0.8-0.8V14.9h3.7C39.1,14.9,39.4,13.9,38.8,13.5z M27.4,29.8L21,36.1c-0.1,0.1-0.2,0.1-0.3,0.2
	c-0.5,0.3-1.1,0.3-1.6-0.1l-7-5.8c-0.6-0.5-0.7-1.3-0.2-1.9c0.5-0.6,1.3-0.7,1.9-0.2l4.6,3.8V20.3c0-0.7,0.6-1.4,1.4-1.4
	c0.7,0,1.4,0.6,1.4,1.4v11.9l4.3-4.3c0.5-0.5,1.4-0.5,1.9,0C27.9,28.4,27.9,29.2,27.4,29.8z M28.3,17.8H11.1c-0.8,0-1.5-0.7-1.5-1.5
	c0-0.8,0.7-1.5,1.5-1.5h17.1c0.8,0,1.5,0.7,1.5,1.5C29.8,17.1,29.1,17.8,28.3,17.8z"/>
</svg>
