<?xml version="1.0" encoding="utf-8"?>
<!-- Generator: Adobe Illustrator 21.0.0, SVG Export Plug-In . SVG Version: 6.00 Build 0)  -->
<svg version="1.1" id="图层_1" xmlns="http://www.w3.org/2000/svg" xmlns:xlink="http://www.w3.org/1999/xlink" x="0px" y="0px"
	 viewBox="0 0 39.2 39" style="enable-background:new 0 0 39.2 39;" xml:space="preserve">
<g>
	<path d="M38.7,13.5l-18.2-13c-0.5-0.4-1.2-0.4-1.7,0l-18.3,13c-0.6,0.4-0.3,1.3,0.4,1.3h3.7v23.2c0,0.4,0.3,0.8,0.8,0.8h28.5
		c0.4,0,0.8-0.3,0.8-0.8V14.9h3.7C39,14.9,39.3,13.9,38.7,13.5z M31.1,27.4c-0.5,2.6-1.9,4.9-3.8,6.6c-0.7-0.8-1.9-1-2.8-0.4
		c-0.9,0.5-1.3,1.6-1,2.6c-1.2,0.4-2.5,0.6-3.8,0.6s-2.6-0.2-3.8-0.6c0.3-1-0.1-2.1-1-2.6c-0.9-0.5-2.1-0.3-2.8,0.4
		c-1.9-1.7-3.3-4-3.8-6.6c1-0.2,1.8-1.1,1.8-2.2c0-1.1-0.8-2-1.8-2.2c0.5-2.6,1.9-4.9,3.8-6.6c0.7,0.8,1.9,1,2.8,0.4
		c0.9-0.5,1.3-1.6,1-2.6c1.2-0.4,2.5-0.6,3.8-0.6s2.6,0.2,3.8,0.6c-0.3,1,0.1,2.1,1,2.6s2.1,0.3,2.8-0.4c1.9,1.7,3.3,4,3.8,6.6
		c-1,0.2-1.8,1.1-1.8,2.2C29.3,26.2,30.1,27.1,31.1,27.4z"/>
	<ellipse cx="19.6" cy="25.2" rx="5" ry="5"/>
</g>
</svg>
