<?xml version="1.0" encoding="utf-8"?>
<!-- Generator: Adobe Illustrator 21.0.0, SVG Export Plug-In . SVG Version: 6.00 Build 0)  -->
<svg version="1.1" id="图层_1" xmlns="http://www.w3.org/2000/svg" xmlns:xlink="http://www.w3.org/1999/xlink" x="0px" y="0px"
	 viewBox="0 0 39.5 39.5" style="enable-background:new 0 0 39.5 39.5;" xml:space="preserve">
<path d="M39,36.5l-4.4-3.7c0.8-1.4,1.2-3,1-4.7c-0.5-4.2-4.2-7.2-8.4-6.7c-4.2,0.5-7.2,4.2-6.7,8.4C21,34,24.8,37,29,36.6
	c1.7-0.2,3.3-1,4.4-2.1l4.4,3.7c0.4,0.3,1.1,0.3,1.4-0.2C39.5,37.5,39.4,36.9,39,36.5z M28.3,33.5c-2.4,0.1-4.5-1.8-4.6-4.2
	c-0.1-2.4,1.8-4.5,4.2-4.6c2.4-0.1,4.5,1.8,4.6,4.2C32.6,31.3,30.7,33.4,28.3,33.5z"/>
<path d="M39,20.1L20.1,0.5c-0.2-0.2-0.5-0.2-0.7,0c0,0,0,0,0,0L0.5,20.1c-0.3,0.3-0.1,0.8,0.3,0.8h3v17.9c0,0.3,0.2,0.5,0.5,0.5
	h30.7c0.3,0,0.5-0.2,0.5-0.5l0-1l-2.2-2c-1.5,1.1-3.3,1.8-5.2,1.8c-4.8,0-8.6-3.9-8.6-8.6c0-4.8,3.9-8.6,8.6-8.6
	c3.2,0,6,1.7,7.5,4.3v-3.7h3.1C39.1,20.9,39.3,20.4,39,20.1z M11.4,36.9c0,0.2-0.2,0.4-0.4,0.4H7.8c-0.2,0-0.4-0.2-0.4-0.4v-3.2
	c0-0.2,0.2-0.4,0.4-0.4H11c0.2,0,0.4,0.2,0.4,0.4V36.9z M11.4,31.3c0,0.2-0.2,0.4-0.4,0.4H7.8c-0.2,0-0.4-0.2-0.4-0.4v-3.2
	c0-0.2,0.2-0.4,0.4-0.4H11c0.2,0,0.4,0.2,0.4,0.4V31.3z M11.4,25.7c0,0.2-0.2,0.4-0.4,0.4H7.8c-0.2,0-0.4-0.2-0.4-0.4v-3.2
	c0-0.2,0.2-0.4,0.4-0.4H11c0.2,0,0.4,0.2,0.4,0.4V25.7z M16.4,37.4h-3.2c-0.2,0-0.4-0.2-0.4-0.4v-3.2c0-0.2,0.2-0.4,0.4-0.4h3.2
	c0.2,0,0.4,0.2,0.4,0.4l0,3.2C16.8,37.2,16.6,37.4,16.4,37.4z M16.4,31.7h-3.2c-0.2,0-0.4-0.2-0.4-0.4v-3.2c0-0.2,0.2-0.4,0.4-0.4
	h3.2c0.2,0,0.4,0.2,0.4,0.4l0,3.2C16.8,31.5,16.6,31.7,16.4,31.7z"/>
</svg>
