<?xml version="1.0" encoding="utf-8"?>
<!-- Generator: Adobe Illustrator 21.0.0, SVG Export Plug-In . SVG Version: 6.00 Build 0)  -->
<svg version="1.1" id="图层_1" xmlns="http://www.w3.org/2000/svg" xmlns:xlink="http://www.w3.org/1999/xlink" x="0px" y="0px"
	 viewBox="0 0 39.5 39.2" style="enable-background:new 0 0 39.5 39.2;" xml:space="preserve">
<path d="M38.8,13.7l-18.2-13c-0.5-0.4-1.2-0.4-1.7,0l-18.3,13C0,14.1,0.3,15.1,1,15.1h3.7v23.3c0,0.4,0.3,0.8,0.8,0.8H34
	c0.4,0,0.8-0.3,0.8-0.8V15.1h3.7C39.1,15.1,39.4,14.1,38.8,13.7z M25.7,33.1h-12v-3h12V33.1z M25.7,27.1h-12v-3h12V27.1z M25.7,21.1
	h-12v-3h12V21.1z"/>
</svg>
