<?xml version="1.0" encoding="utf-8"?>
<!-- Generator: Adobe Illustrator 21.0.0, SVG Export Plug-In . SVG Version: 6.00 Build 0)  -->
<svg version="1.1" id="图层_1" xmlns="http://www.w3.org/2000/svg" xmlns:xlink="http://www.w3.org/1999/xlink" x="0px" y="0px"
	 viewBox="0 0 38.5 43.1" style="enable-background:new 0 0 38.5 43.1;" xml:space="preserve">
<path d="M32.8,0.2H5.7c0,0,0,0,0,0c0,0,0,0,0,0c-3,0-5.4,2.4-5.4,5.4v31.5c0,0.4,0.2,0.8,0.4,1l4.4,4.2c0.6,0.5,1.5,0.5,2,0l4.5-4.3
	l4.7,4.5c0.6,0.5,1.5,0.5,2,0l4.7-4.5l4.7,4.5c0.3,0.3,0.6,0.4,1,0.4c0.4,0,0.7-0.1,1-0.4l4.2-4.1c0.3-0.3,0.4-0.7,0.4-1V10.8
	c2.3-0.6,4.1-2.7,4.1-5.2h0C38.4,2.6,35.9,0.2,32.8,0.2z M5,18v-4c0-0.4,0.3-0.7,0.7-0.7h14.7v-1.9c0-0.5,0.5-0.9,1-0.6l8,4.6
	c0.5,0.3,0.5,0.9,0,1.3l-8,4.6c-0.5,0.3-1-0.1-1-0.6v-2H5.6C5.2,18.6,5,18.4,5,18z M30.3,31.3c0,0.4-0.3,0.7-0.7,0.7H15v1.9
	c0,0.5-0.5,0.9-1,0.6l-8-4.6c-0.5-0.3-0.5-0.9,0-1.2l8-4.6c0.5-0.3,1,0.1,1,0.6v1.9h14.7c0.4,0,0.7,0.3,0.7,0.7V31.3z M32.8,8.1
	L32.8,8.1H10.6c0.8-1.5,0.8-3.4,0-5h22.2c1.4,0,2.6,1.1,2.6,2.5S34.3,8.1,32.8,8.1z"/>
</svg>
