<?xml version="1.0" standalone="no"?><!DOCTYPE svg PUBLIC "-//W3C//DTD SVG 1.1//EN" "http://www.w3.org/Graphics/SVG/1.1/DTD/svg11.dtd"><svg t="1565230815299" class="icon" viewBox="0 0 1024 1024" version="1.1" xmlns="http://www.w3.org/2000/svg" p-id="8032" xmlns:xlink="http://www.w3.org/1999/xlink" width="200" height="200"><defs><style type="text/css"></style></defs><path d="M484.084364 614.4c-186.181818 0-335.138909-136.529455-335.138909-307.2C148.945455 136.529455 297.902545 0 484.084364 0s335.127273 136.529455 335.127272 307.188364C819.2 477.858909 670.266182 614.4 484.084364 614.4z m0-546.129455c-141.498182 0-260.642909 109.230545-260.642909 238.929455 0 129.710545 119.144727 238.941091 260.642909 238.941091s260.654545-109.230545 260.654545-238.941091c0-129.710545-119.156364-238.929455-260.654545-238.929455z m0 0" p-id="8033" fill="#ffffff"></path><path d="M37.248 1024c-22.353455 0-37.236364-13.649455-37.236364-34.141091 0-245.76 215.970909-443.729455 484.072728-443.729454 119.156364 0 230.865455 40.96 320.244363 109.230545 14.882909 13.649455 14.882909 34.141091 0 47.778909a38.283636 38.283636 0 0 1-52.130909 0c-74.461091-61.44-171.287273-95.581091-275.549091-95.581091-223.418182 0-409.6 170.670545-409.6 375.482182C74.472727 1010.350545 59.589818 1024 37.248 1024z m0 0" p-id="8034" fill="#ffffff"></path><path d="M618.135273 1024l-163.84-150.178909c-14.894545-13.661091-14.894545-34.141091 0-47.790546a38.283636 38.283636 0 0 1 52.119272 0l111.720728 102.411637L960.709818 614.4a38.306909 38.306909 0 0 1 52.130909 0c14.882909 13.661091 14.882909 34.141091 0 47.778909L618.135273 1024z m0 0" p-id="8035" fill="#ffffff"></path></svg>