<?xml version="1.0" standalone="no"?><!DOCTYPE svg PUBLIC "-//W3C//DTD SVG 1.1//EN" "http://www.w3.org/Graphics/SVG/1.1/DTD/svg11.dtd"><svg t="1565250348436" class="icon" viewBox="0 0 1027 1024" version="1.1" xmlns="http://www.w3.org/2000/svg" p-id="20976" xmlns:xlink="http://www.w3.org/1999/xlink" width="200.5859375" height="200"><defs><style type="text/css"></style></defs><path d="M768.134225 598.51113a42.441737 42.441737 0 0 1-30.071399-72.411113l146.556622-146.607634a169.868971 169.868971 0 0 0-240.214109-240.21411l-146.505611 146.505611a42.390725 42.390725 0 0 1-59.964257 0 42.518254 42.518254 0 0 1 0-60.040774l146.505611-146.505611A254.803457 254.803457 0 1 1 946.267092 438.002806l-1.581363 1.581363-146.352576 146.505611a42.314208 42.314208 0 0 1-30.020387 12.42135M254.752445 1023.999745a254.803457 254.803457 0 0 1-180.198841-434.900274L223.686318 439.915745a42.390725 42.390725 0 0 1 59.938751 0 42.390725 42.390725 0 0 1 0 59.964257L134.492355 649.063728a169.894477 169.894477 0 0 0 240.265121 240.214109l149.234738-149.209231a42.441737 42.441737 0 0 1 60.091786 60.091786l-149.15822 149.209231A254.089293 254.089293 0 0 1 254.752445 1023.999745m127.401728-339.737942a42.441737 42.441737 0 0 1-30.173422-72.48763l254.803457-254.803457a42.390725 42.390725 0 0 1 59.964257 0 42.390725 42.390725 0 0 1 0 59.938751l-254.803457 254.803457a42.314208 42.314208 0 0 1-29.918364 12.446855" p-id="20977"></path></svg>