<?xml version="1.0" encoding="utf-8"?>
<!-- Generator: Adobe Illustrator 21.0.0, SVG Export Plug-In . SVG Version: 6.00 Build 0)  -->
<svg version="1.1" id="图层_1" xmlns="http://www.w3.org/2000/svg" xmlns:xlink="http://www.w3.org/1999/xlink" x="0px" y="0px"
	 viewBox="0 0 1280 1024" style="enable-background:new 0 0 1280 1024;" xml:space="preserve">
<style type="text/css">
	.st0{fill:#4F4F4F;}
	.st1{clip-path:url(#SVGID_2_);fill:#4F4F4F;}
	.st2{clip-path:url(#SVGID_4_);fill:#4F4F4F;}
</style>
<g>
	<path class="st0" d="M832,510H409.4c-8.7,0-17-3.5-23.2-9.7c-6.2-6.2-9.7-14.5-9.7-23.2V54.5c0-8.7,3.5-17,9.7-23.2
		c6.2-6.2,14.5-9.7,23.2-9.7h422.5c8.7,0,17,3.5,23.2,9.7c6.2,6.2,9.7,14.5,9.7,23.2v422.7c0,8.7-3.5,17-9.7,23.2
		C849.1,506.5,840.7,510,832,510L832,510z M414.1,472.4h413.2V59.2H414.1V472.4z"/>
	<path class="st0" d="M949.6,735.1H291.8c-17.4,0-31.6-13.4-31.6-29.8v-214c0-10.4,8.5-18.8,18.8-18.8c10.4,0,18.8,8.5,18.8,18.8
		v206.3h645.9V491.2c0-10.4,8.5-18.8,18.8-18.8s18.8,8.5,18.8,18.8v214C981.2,721.7,967,735.1,949.6,735.1L949.6,735.1z"/>
	<path class="st0" d="M620.6,716.8c-5,0-9.8-2-13.2-5.5c-3.6-3.6-5.5-8.3-5.5-13.2V491.2c0-10.4,8.5-18.8,18.8-18.8
		s18.8,8.5,18.8,18.8v206.9c0,5-2,9.8-5.5,13.2C630.4,714.9,625.6,716.8,620.6,716.8L620.6,716.8z"/>
	<g>
		<g>
			<defs>
				<rect id="SVGID_1_" x="217.6" y="21" width="806.9" height="978.5"/>
			</defs>
			<clipPath id="SVGID_2_">
				<use xlink:href="#SVGID_1_"  style="overflow:visible;"/>
			</clipPath>
			<path class="st1" d="M620.6,998.3c-5,0-9.8-2-13.2-5.5c-3.6-3.6-5.5-8.3-5.5-13.2V698.1c0-10.4,8.5-18.8,18.8-18.8
				s18.8,8.5,18.8,18.8v281.5c0,5-2,9.8-5.5,13.2C630.4,996.3,625.6,998.3,620.6,998.3L620.6,998.3z"/>
		</g>
		<g>
			<defs>
				<rect id="SVGID_3_" x="217.6" y="21" width="806.9" height="978.5"/>
			</defs>
			<clipPath id="SVGID_4_">
				<use xlink:href="#SVGID_3_"  style="overflow:visible;"/>
			</clipPath>
			<path class="st2" d="M808.6,998.3H432.7c-10.4,0-18.8-8.5-18.8-18.8s8.5-18.8,18.8-18.8h375.8c10.4,0,18.8,8.5,18.8,18.8
				C827.4,990,819,998.3,808.6,998.3L808.6,998.3z M962.3,660.1H278.9c-10.4,0-18.8-8.5-18.8-18.8s8.5-18.8,18.8-18.8h683.4
				c10.4,0,18.8,8.5,18.8,18.8C981.2,651.6,972.7,660.1,962.3,660.1L962.3,660.1z M321.7,510h-85.4c-10.4,0-18.8-8.5-18.8-18.8
				c0-10.4,8.5-18.8,18.8-18.8h85.4c10.4,0,18.8,8.5,18.8,18.8C340.4,501.6,332.1,510,321.7,510L321.7,510z M1005.1,510h-85.4
				c-10.4,0-18.8-8.5-18.8-18.8c0-10.4,8.5-18.8,18.8-18.8h85.4c10.4,0,18.8,8.5,18.8,18.8C1023.9,501.6,1015.5,510,1005.1,510
				L1005.1,510z"/>
		</g>
	</g>
</g>
</svg>
