<?xml version="1.0" encoding="utf-8"?>
<!-- Generator: Adobe Illustrator 21.0.0, SVG Export Plug-In . SVG Version: 6.00 Build 0)  -->
<svg version="1.1" id="图层_1" xmlns="http://www.w3.org/2000/svg" xmlns:xlink="http://www.w3.org/1999/xlink" x="0px" y="0px"
	 viewBox="0 0 200 200" style="enable-background:new 0 0 200 200;" xml:space="preserve">
<style type="text/css">
	.st0{fill:#4F4F4F;}
</style>
<path class="st0" d="M40.8,98.1c2.3,0,4.1-1.8,4.1-4.1V6.8c0-2.3-1.8-4.1-4.1-4.1c-2.3,0-4.1,1.8-4.1,4.1V94
	C36.7,96.2,38.6,98.1,40.8,98.1z M71.6,62.6c2.3,0,4.1-1.8,4.1-4.1V6.8c0-2.3-1.8-4.1-4.1-4.1c-2.3,0-4.1,1.8-4.1,4.1v51.8
	C67.5,60.8,69.3,62.6,71.6,62.6z M102.3,80.1c2.3,0,4.1-1.8,4.1-4.1V6.8c0-2.3-1.8-4.1-4.1-4.1c-2.3,0-4.1,1.8-4.1,4.1V76
	C98.2,78.2,100,80.1,102.3,80.1z M133.1,42.7c2.3,0,4.1-1.8,4.1-4.1V6.8c0-2.3-1.8-4.1-4.1-4.1c-2.3,0-4.1,1.8-4.1,4.1v31.9
	C128.9,40.9,130.8,42.7,133.1,42.7z"/>
<path class="st0" d="M194.5,59.5c-2.3,0-4.1,1.8-4.1,4.1V185h-22.5V91.3c0-2.3-1.8-4.1-4.1-4.1c-2.3,0-4.1,1.8-4.1,4.1V185h-22.5
	v-50.3c0-2.3-1.8-4.1-4.1-4.1c-2.3,0-4.1,1.8-4.1,4.1V185h-22.5v-30.2c0-2.3-1.8-4.1-4.1-4.1c-2.3,0-4.1,1.8-4.1,4.1V185H75.7v-37.3
	c0-2.3-1.8-4.1-4.1-4.1c-2.3,0-4.1,1.8-4.1,4.1V185H45v-4c0-2.3-1.8-4.1-4.1-4.1c-2.3,0-4.1,1.8-4.1,4.1v4H19.2L74,104.8l31.8,19.9
	c2.8,1.7,6.4,1,8.3-1.7l68.7-98.3l2.8,14.5c0.6,3,3.1,5,6.1,5c0.4,0,0.8,0,1.2-0.1c3.3-0.6,5.5-3.9,4.9-7.2l-5.4-28.4
	c-0.3-1.6-1.2-3-2.6-3.9c-1.4-0.9-3-1.3-4.6-1L156.7,9c-3.3,0.6-5.5,3.9-4.9,7.2c0.6,3.3,3.9,5.5,7.2,4.9l13-2.5l-64.6,92.4
	L75.5,91.2c-2.8-1.8-6.5-1-8.4,1.8l-53.5,78.3V9.4c0-3.4-2.8-6.2-6.2-6.2S1.4,6,1.4,9.4v181.8c0,0.1,0,0.2,0,0.2c0,0.3,0,0.6,0.1,1
	c0,0.2,0.1,0.4,0.2,0.5c0.1,0.2,0.1,0.4,0.2,0.6c0.1,0.2,0.2,0.3,0.3,0.5c0.1,0.2,0.2,0.4,0.3,0.5c0.1,0.2,0.2,0.3,0.4,0.5
	c0.1,0.2,0.2,0.3,0.4,0.5c0.2,0.2,0.4,0.4,0.6,0.6c0.1,0.1,0.2,0.2,0.3,0.2c0,0,0,0,0,0c0,0,0.1,0,0.1,0.1c0.3,0.2,0.6,0.3,0.9,0.5
	c0.1,0,0.2,0.1,0.3,0.1c0.3,0.1,0.5,0.2,0.8,0.2c0.1,0,0.2,0,0.3,0.1c0.4,0.1,0.7,0.1,1.1,0.1H192c2.3,0,4.3-1.3,5.3-3.1
	c0.8-0.8,1.3-1.8,1.3-3V63.6C198.6,61.4,196.8,59.5,194.5,59.5L194.5,59.5z"/>
</svg>
