<?xml version="1.0" standalone="no"?><!DOCTYPE svg PUBLIC "-//W3C//DTD SVG 1.1//EN" "http://www.w3.org/Graphics/SVG/1.1/DTD/svg11.dtd"><svg t="1552890088529" class="icon" style="" viewBox="0 0 1024 1024" version="1.1" xmlns="http://www.w3.org/2000/svg" p-id="8067" xmlns:xlink="http://www.w3.org/1999/xlink" width="200" height="200"><defs><style type="text/css"></style></defs><path d="M946.128957 513.592264c0.650823-0.49528 0.970094-1.242294 1.031493-1.992377-0.061398-0.747014-0.38067-1.497097-1.031493-1.997494-12.415774-9.472745-19.261693-19.381419-19.780509-29.79049-0.032746-10.478655 4.15667-21.170159 14.620999-32.358989 0.545422-0.590448 0.716314-1.378393 0.605797-2.117221-0.109494-0.741897-0.512676-1.423419-1.207501-1.841951-13.281491-7.546883-20.590967-16.4783-23.645536-26.477025-2.602268-10.092869 0.982374-21.599947 10.000771-34.387181 0.424672-0.648776 0.448208-1.439792 0.192382-2.139733-0.258896-0.711198-0.788969-1.325182-1.560542-1.598404-14.637372-5.308913-24.102954-12.68695-27.652803-22.496363-3.258207-9.928117-2.843768-21.255093 4.025687-35.231409 0.340761-0.723477 0.279363-1.530866-0.045025-2.208295-0.330528-0.671289-0.903579-1.207501-1.686409-1.38351-14.493086-3.409656-25.045419-9.200546-30.691-17.99177-5.64558-8.755408-4.845355-21.391193-1.052982-35.68371 0.208754-0.751107 0-1.51347-0.451278-2.111081-0.441045-0.603751-1.119497-1.028423-1.929955-1.077541-15.44783-0.716314-26.549679-5.019317-32.785707-13.379729-7.02909-7.702426-9.146311-19.415189-6.919597-34.724873 0.104377-0.807389-0.188288-1.562589-0.695848-2.117221-0.49528-0.542352-1.212618-0.893346-2.00568-0.829901-14.764262 1.047866-27.285436-0.605797-34.81083-7.80885-7.53051-7.247054-11.278881-18.650779-11.838629-33.555234-0.033769-0.789992-0.442068-1.477654-1.060145-1.923816-0.593518-0.442068-1.36816-0.662079-2.140757-0.463558-15.050788 4.101411-26.172079 2.246157-35.379789-2.740414-8.908904-5.395894-14.34573-16.117073-16.748453-31.529087-0.132006-0.804319-0.618077-1.438769-1.258667-1.837858-0.62831-0.419556-1.475608-0.419556-2.213411-0.118704-14.261818 6.378268-26.224268 7.65433-35.606962 3.113921-9.185196-4.999874-16.693194-13.519921-21.48943-28.231995-0.251733-0.766456-0.849344-1.293459-1.555425-1.552356-0.706081-0.25378-1.500167-0.236384-2.194992 0.179079-12.868075 7.774057-24.342408 10.456143-34.567283 8.252964-10.122545-2.463098-18.422581-11.582803-25.467021-25.097608-0.388856-0.689708-1.062192-1.088798-1.801019-1.202385-0.73985-0.107447-1.528819 0.063445-2.13871 0.603751-11.641131 10.287297-22.63451 15.017018-32.94739 13.423731-10.29753-1.590218-20.053732-7.597025-29.051663-20.255323-0.472767-0.650823-1.215688-0.976234-1.953492-1.007957-0.7552-0.041956-1.509377 0.211824-2.026146 0.809435-9.936303 11.076266-20.081361 17.480116-30.497595 18.331507-10.398838 0.705058-21.073968-5.611811-31.833009-16.318664-0.575098-0.538259-1.333368-0.720408-2.072195-0.601704-0.738827 0.112564-1.444908 0.515746-1.874697 1.202385-8.026814 13.302981-17.104563 21.093411-27.415396 22.644743-10.284227 1.659803-21.401426-1.26583-33.791617-10.643408-0.639566-0.455371-1.444908-0.561795-2.174526-0.375553-0.727571 0.186242-1.36509 0.647753-1.687432 1.375324-6.152117 13.493316-13.769608 23.006993-23.518646 26.719548-9.670244 3.874237-21.972431 0.527003-35.20378-5.779633-0.717338-0.344854-1.503237-0.292666-2.174526 0.026606-0.672312 0.333598-1.236154 0.914836-1.423419 1.705851-3.647063 15.029298-10.019191 25.032116-19.370163 29.615505-8.900717 5.441942-20.808932 5.282307-35.418674 0.185218-0.771573-0.258896-1.563612-0.118704-2.200108 0.283456-0.63445 0.38374-1.118474 1.00898-1.215688 1.794879-1.744737 14.733563-5.747911 26.703175-14.249539 32.720216-8.552793 6.006807-20.442588 7.547907-35.181267 5.279237-0.796132-0.12382-1.534959 0.151449-2.084475 0.655939-0.564865 0.50756-0.912789 1.224898-0.873903 2.02103 1.169639 15.535835-2.745531 26.13217-9.405207 34.228569-6.991228 7.723915-18.556635 11.019984-34.147728 10.435677-0.813528-0.011256-1.544169 0.353041-2.040473 0.898463-0.463558 0.587378-0.672312 1.378393-0.496304 2.179642 3.529383 15.202237 2.483564 27.16571-3.770883 35.519981-6.67912 8.049327-16.370853 13.877055-31.818683 15.70468-0.794086 0.107447-1.433652 0.597611-1.822508 1.232061-0.38374 0.647753-0.512676 1.428535-0.25378 2.177596 5.053086 14.058181 5.711072 25.974581 1.512447 35.540448-4.313236 9.477862-15.179724 15.736403-29.441543 20.213367-0.750083 0.236384-1.26276 0.829901-1.518586 1.530866-0.265036 0.698918-0.243547 1.512447 0.153496 2.207271 7.818059 13.385868 10.284227 25.048489 6.682189 34.82618-2.958378 9.992585-11.302417 18.228153-25.38004 24.682146-0.730641 0.344854-1.191128 0.989537-1.38351 1.728364-0.187265 0.721431-0.084934 1.509377 0.388856 2.133593 8.806573 11.808954 14.069437 23.151279 12.378935 33.43653-1.396813 10.327206-9.934257 19.570731-21.829168 28.194132-0.649799 0.452301-0.970094 1.162476-1.00591 1.912559-0.055259 0.750083 0.197498 1.523703 0.807389 2.068102 11.42112 10.374278 17.225313 20.766976 16.681938 31.185256 0.543376 10.416234-5.26184 20.803815-16.681938 31.178093-0.60989 0.555655-0.862647 1.309832-0.807389 2.064009 0.035816 0.754177 0.356111 1.481747 1.00591 1.928932 11.894911 8.614192 20.431332 17.86795 21.829168 28.182876 1.689479 10.290367-3.572362 21.644973-12.378935 33.44881-0.473791 0.624217-0.576121 1.399883-0.400113 2.128477 0.190335 0.738827 0.664126 1.387603 1.394766 1.733481 14.077623 6.441713 22.410406 14.693654 25.368784 24.666796 3.603061 9.797134 1.134847 21.449521-6.670933 34.840506-0.408299 0.700965-0.418532 1.502213-0.165776 2.196015 0.25378 0.717338 0.779759 1.300622 1.529843 1.538029 14.262842 4.485151 25.12933 10.734482 29.441543 20.212344 4.198625 9.56382 3.51608 21.475104-1.518586 35.542494-0.267083 0.747014-0.137123 1.52575 0.24764 2.175549 0.400113 0.64059 1.039679 1.134847 1.833765 1.224898 15.436574 1.822508 25.139563 7.658424 31.807427 15.72003 6.265704 8.338922 7.299243 20.318768 3.770883 35.515888-0.176009 0.791016 0.033769 1.579985 0.496304 2.168386 0.506537 0.562818 1.237177 0.927115 2.050706 0.898463 15.59007-0.588401 27.146267 2.718925 34.147728 10.453073 6.6607 8.076956 10.55745 18.683525 9.405207 34.213219-0.052189 0.802272 0.309038 1.51347 0.862647 2.02717 0.559748 0.49835 1.298576 0.789992 2.094708 0.659009 14.728446-2.264577 26.628474-0.719384 35.181267 5.281283 8.501628 6.009877 12.504802 17.98256 14.249539 32.719192 0.096191 0.776689 0.569982 1.407046 1.201361 1.804089 0.649799 0.38374 1.441838 0.528026 2.213411 0.252757 14.609743-5.082762 26.5067-5.249561 35.418674 0.197498 9.350972 4.599761 15.7231 14.589276 19.358907 29.628808 0.198521 0.780783 0.750083 1.366114 1.433652 1.685385 0.672312 0.325411 1.457188 0.397043 2.163269 0.045025 13.242606-6.307659 25.544793-9.66922 35.20378-5.777587 9.750061 3.710508 17.365506 13.220093 23.529903 26.714432 0.312108 0.729617 0.959861 1.179872 1.687432 1.369184 0.729617 0.186242 1.523703 0.093121 2.174526-0.38067 12.390191-9.356089 23.496134-12.301164 33.781384-10.629081 10.320043 1.557472 19.397792 9.342786 27.424606 22.629393 0.418532 0.707105 1.124614 1.104147 1.874697 1.224898 0.727571 0.10847 1.485841-0.072655 2.061962-0.618077 10.759041-10.695596 21.434172-17.012466 31.833009-16.318664 10.416234 0.847298 20.572548 7.241938 30.498618 18.34788 0.528026 0.594541 1.281179 0.825808 2.025123 0.802272 0.750083-0.031722 1.477654-0.373507 1.965771-1.013073 8.997931-12.647041 18.741853-18.677385 29.051663-20.244067 10.31288-1.608637 21.306258 3.122107 32.937157 13.417591 0.620124 0.531096 1.39886 0.706081 2.149966 0.591471 0.738827-0.105401 1.412163-0.511653 1.801019-1.186012 7.04444-13.527085 15.33322-22.646789 25.455765-25.112957 10.223852-2.209318 21.699208 0.49221 34.57854 8.265244 0.683569 0.412392 1.487887 0.428765 2.183735 0.176009 0.716314-0.258896 1.302669-0.783853 1.565658-1.554402 4.78498-14.703887 12.294001-23.221888 21.48943-28.227901 9.382695-4.541433 21.334911-3.2623 35.606962 3.098571 0.737804 0.314155 1.573845 0.314155 2.213411-0.099261 0.629333-0.397043 1.127683-1.036609 1.258667-1.852184 2.39249-15.404852 7.839549-26.122961 16.748453-31.503505 9.207709-5.006014 20.329001-6.857175 35.368532-2.753717 0.783853 0.189312 1.557472-0.024559 2.152013-0.472767 0.618077-0.434905 1.026376-1.12666 1.060145-1.912559 0.559748-14.908548 4.308119-26.309202 11.838629-33.55728 7.525394-7.209192 20.046568-8.844435 34.81083-7.807826 0.793062 0.063445 1.499144-0.287549 2.00568-0.833995 0.50756-0.553609 0.799202-1.304715 0.695848-2.117221-2.238994-15.305591-0.109494-27.01733 6.919597-34.725896 6.236028-8.359388 17.337877-12.662391 32.785707-13.374612 0.810459-0.049119 1.488911-0.472767 1.929955-1.077541 0.451278-0.598634 0.661056-1.346671 0.451278-2.122337-3.792373-14.281261-4.591575-26.91807 1.052982-35.661198 5.646604-8.7902 16.197914-14.575973 30.691-17.992793 0.783853-0.176009 1.355881-0.729617 1.686409-1.393743 0.324388-0.683569 0.385786-1.485841 0.045025-2.207271-6.869455-13.984503-7.271614-25.308409-4.025687-35.234479 3.550873-9.794064 13.016455-17.184381 27.652803-22.487154 0.772596-0.285502 1.301645-0.895393 1.571798-1.596358 0.243547-0.698918 0.221034-1.489934-0.203638-2.149966-9.018398-12.792351-12.603039-24.298406-10.000771-34.387181 3.054569-10.003841 10.365068-18.911722 23.645536-26.482141 0.694825-0.403183 1.096984-1.084705 1.207501-1.835811 0.110517-0.738827-0.060375-1.515516-0.605797-2.117221-10.465352-11.19497-14.653745-21.881356-14.620999-32.357965C926.867264 532.979824 933.713182 523.070126 946.128957 513.592264z" p-id="8068"></path></svg>